<svg width="120" height="120" viewBox="0 0 120 120" fill="none" xmlns="http://www.w3.org/2000/svg">
<path d="M0.0337079 60C0.0337079 40.4494 0.0224719 20.909 0 1.37865C0 0.225843 0.225843 0 1.37865 0C40.4596 0.0382022 79.5405 0.0382022 118.621 0C119.774 0 120 0.225843 120 1.37865C119.962 40.4596 119.962 79.5405 120 118.621C120 119.774 119.774 120 118.621 120C79.5405 119.964 40.4596 119.964 1.37865 120C0.225843 120 0 119.774 0 118.621C0.047191 99.091 0.058427 79.5506 0.0337079 60Z" fill="#FEFEFE"/>
<path d="M57.6404 79.5506C50.5382 78.2562 44.2719 80.4641 38.3191 84.091C37.1258 84.8191 35.8079 85.3382 34.564 85.9854C33.3202 86.6326 32.491 86.3933 31.9382 85.0113C30.3371 81.0472 28.6517 77.1337 27.0775 73.1798C25.2573 68.609 26.6764 65.1573 31.1663 63.1483C34.082 61.8438 37.0652 60.6944 39.9506 59.3124C42.0101 58.3247 44.3528 58.6382 46.564 58.3551C48.4483 58.1023 50.3663 58.0922 52.2472 57.8157C56.2685 57.2259 59.9595 55.5068 63.7955 54.2865C64.9197 53.9312 66.1061 53.8164 67.2775 53.9495C69.4921 54.1753 70.8169 56.1304 70.2539 58.2978C70.0483 59.2353 69.6 60.1023 68.9541 60.8122C68.3081 61.522 67.487 62.0498 66.573 62.3427C64.8236 62.9427 63.0708 63.5292 61.3079 64.0888C60.3843 64.3854 59.8719 64.9247 59.9798 65.936C60.1045 67.1124 61.0213 66.7416 61.6652 66.7483C65.8753 66.7753 70.0921 66.7483 74.2955 66.7787C75.1338 66.7904 75.9534 66.5302 76.6315 66.0371C79.4202 64.1495 82.2202 62.282 85.0315 60.4348C85.6831 59.9998 86.3834 59.6423 87.118 59.3697C89.5989 58.4697 91.9618 59.0326 93.0202 60.7382C94.2236 62.6663 93.9978 65.6629 91.9921 67.1764C87.5124 70.5472 83.5315 74.7236 77.7742 76.1798C74.5787 76.9854 71.4742 78.182 68.3596 79.2877C67.2978 79.6618 66.2528 79.5236 65.2045 79.5405C62.6966 79.5674 60.1551 79.5506 57.6404 79.5506Z" fill="#D1B08F"/>
<path d="M60.9235 33.4585C69.1685 33.4585 77.4134 33.4585 85.6583 33.4585C88.3347 33.4585 88.5741 33.7012 88.5774 36.3034C88.5774 40.0619 88.5437 43.8169 88.5943 47.5753C88.6179 49.072 88.0853 49.6248 86.5246 49.6214C69.4819 49.5787 52.4381 49.5787 35.3932 49.6214C33.8662 49.6214 33.3134 49.1798 33.3707 47.5989C33.4651 43.8405 33.401 40.0821 33.401 36.3203C33.401 33.5798 33.519 33.4585 36.2089 33.4585H60.9404H60.9235Z" fill="#D1AF8E"/>
<path d="M57.3035 77.1909C49.9754 75.8662 43.4832 78.1078 37.345 81.8662C36.3136 82.4999 35.0529 83.6157 34.0754 83.2449C33.3035 82.9516 33.0372 81.2831 32.5855 80.2112C31.4124 77.4202 30.2259 74.6393 29.1169 71.8246C28.0652 69.1449 29.1169 66.5797 31.7428 65.3999C34.8068 64.0213 37.9214 62.7741 40.9551 61.3179C42.9439 60.364 45.263 60.5055 47.4001 60.4819C53.2417 60.4179 58.6181 58.6011 64.0046 56.6966C64.2648 56.5902 64.5345 56.5089 64.8102 56.4539C65.9428 56.2887 67.2169 55.7325 67.9518 57.128C68.39 57.964 67.1563 59.7437 65.8585 60.1988C64.0113 60.8527 62.1338 61.4224 60.2765 62.0527C58.3214 62.7269 57.3641 64.2909 57.6338 66.3438C57.8765 68.1909 58.9113 69.1179 60.7787 69.1213C65.4978 69.1213 70.2169 69.1213 74.936 69.1213C75.7137 69.135 76.4743 68.8921 77.1001 68.4303C80.1338 66.3235 83.2248 64.2842 86.3192 62.2584C86.8771 61.8826 87.5001 61.614 88.1563 61.4662C89.2383 61.2438 90.5495 60.8864 91.1529 62.1775C91.7327 63.4179 91.5675 64.8741 90.4079 65.7033C85.7495 69.0269 81.5462 72.8999 75.7686 74.6628C70.3922 76.3044 65.1338 77.646 59.5046 77.1876C58.7495 77.1471 58.0147 77.1909 57.3035 77.1909Z" fill="#FDFBFA"/>
<path d="M55.2808 35.7944C61.2303 35.7944 67.1797 35.8314 73.1291 35.7674C74.4437 35.7674 74.8718 36.1045 74.8145 37.4528C74.7134 40.2539 74.7471 43.0652 74.8145 45.8798C74.8348 47.0022 74.528 47.491 73.3044 47.4876C61.237 47.4584 49.1673 47.4584 37.0954 47.4876C35.946 47.4876 35.6696 47.0663 35.6898 46.0079C35.7471 43.0887 35.7673 40.1663 35.6898 37.2438C35.6561 35.9932 36.1617 35.7573 37.2775 35.7674C43.2808 35.8078 49.2876 35.7876 55.2909 35.7876L55.2808 35.7944Z" fill="#FDFBFA"/>
<path d="M81.5729 41.6729C81.5729 40.1055 81.6067 38.5381 81.5729 36.9707C81.546 36.1044 81.8595 35.828 82.7291 35.7808C86.255 35.5853 86.255 35.555 86.255 39.1179C86.255 41.4134 86.2213 43.7089 86.255 46.0044C86.2819 47.083 85.8943 47.4673 84.7988 47.4943C81.5662 47.5718 81.5696 47.6123 81.5696 44.3595L81.5729 41.6729Z" fill="#FDFBFA"/>
<path d="M76.9078 41.6359C76.9078 40.1797 76.9449 38.7201 76.9078 37.2538C76.8741 36.2797 77.1707 35.8078 78.2325 35.8145C79.2235 35.8145 79.4662 36.2864 79.4595 37.1628C79.4325 40.1336 79.4325 43.1033 79.4595 46.0718C79.4595 46.955 79.2168 47.4201 78.2291 47.4201C77.164 47.4201 76.8808 46.9482 76.9078 45.9808C76.9449 44.5516 76.9078 43.0921 76.9078 41.6359Z" fill="#FDFBFA"/>
<path d="M60.7516 42.809C58.3483 42.809 55.9415 42.809 53.5382 42.809C52.709 42.809 51.9 42.809 51.873 41.673C51.846 40.537 52.6213 40.4629 53.4708 40.4629C58.3921 40.4629 63.3134 40.4629 68.2348 40.4629C69.1348 40.4629 70.0786 40.5505 70.0348 41.6797C69.991 42.809 69.0033 42.8056 68.1337 42.8056C65.673 42.8078 63.2123 42.809 60.7516 42.809Z" fill="#D1B08F"/>
</svg>
