<svg width="121" height="120" viewBox="0 0 121 120" fill="none" xmlns="http://www.w3.org/2000/svg">
<path d="M60.3315 119.966C40.8483 119.966 21.364 119.978 1.87865 120C0.725843 120 0.5 119.774 0.5 118.621C0.538202 79.5404 0.538202 40.4595 0.5 1.37865C0.5 0.225843 0.725843 0 1.87865 0C40.9596 0.0382022 80.0405 0.0382022 119.121 0C120.274 0 120.5 0.225843 120.5 1.37865C120.464 40.4595 120.464 79.5393 120.5 118.618C120.5 119.774 120.274 120.003 119.121 120C99.5236 119.953 79.927 119.942 60.3315 119.966Z" fill="#FEFEFE"/>
<path d="M70.6629 93.7078C67.5213 93.7078 64.3696 93.573 61.2247 93.755C59.2562 93.8662 57.7393 93.1988 56.3472 92.0089C50.9101 87.3707 47.9202 81.4213 48.1157 74.3258C48.3449 65.528 52.4708 58.7662 60.409 54.7314C62.3371 53.7505 62.9303 52.7089 62.8461 50.6864C62.6876 46.8774 62.782 43.055 62.8123 39.2258C62.8123 38.2415 62.6944 37.6347 61.5517 37.2505C59.6539 36.6067 59.0202 34.8067 59.482 32.3022C59.782 30.6876 61.1067 29.6965 63.082 29.6898C68.0775 29.6763 73.0719 29.6763 78.0652 29.6898C80.0573 29.6898 81.382 30.6606 81.6989 32.2651C82.2011 34.8168 81.527 36.5763 79.518 37.3213C78.564 37.6583 78.382 38.1471 78.3685 39.0336C78.3079 43.1595 78.2876 43.1864 82.4539 43.1696C86.6202 43.1527 89.7112 44.9258 91.1775 48.7718C92.6135 52.5302 92.4213 56.3561 89.4247 59.4235C88.3292 60.5426 88.609 61.1662 89.3034 62.2078C96.0449 72.3201 93.4191 86.1909 83.573 92.9392C82.8529 93.4682 81.9787 93.7454 81.0854 93.728C77.6236 93.6606 74.1416 93.7078 70.6629 93.7078Z" fill="#D7AF87"/>
<path d="M30.18 73.4529C30.18 68.0596 30.18 62.672 30.18 57.29C30.18 56.4001 30.3924 55.4428 28.9227 55.5102C28.3025 55.5405 27.9452 54.9034 27.9721 54.3203C28.0058 53.5888 28.5789 53.2787 29.2665 53.272C31.0058 53.272 32.7452 53.2484 34.4845 53.272C35.2766 53.272 35.9171 53.272 35.8834 52.1664C35.8564 51.172 35.3912 50.9866 34.535 50.9293C31.4811 50.7372 29.1418 48.4484 29.1418 45.7956C29.1418 44.7169 29.5968 44.2518 30.6249 44.2147C31.9683 44.1279 33.3161 44.2925 34.5991 44.7001C34.98 44.8282 35.7654 45.6574 35.8025 44.5619C35.8294 43.763 36.6789 42.3506 35.007 42.1349C32.9845 41.872 31.1676 41.3225 30.0216 39.4787C29.754 39.0566 29.5378 38.6039 29.3777 38.1304C28.7036 36.0136 29.1553 35.3731 31.3733 35.3798C32.6036 35.3798 33.8508 35.2484 34.9834 35.9225C35.3744 36.1551 35.6879 36.145 35.8665 35.5855C36.3283 34.1394 35.7317 33.1686 34.2519 33.0439C31.3968 32.7945 29.0339 30.3372 29.1216 27.7416C29.1553 26.7742 29.5362 26.3225 30.5407 26.299C32.6474 26.245 34.7238 26.2518 36.3317 27.9203C36.8238 28.4293 37.1845 28.2574 37.5924 27.8293C39.2777 26.0832 41.4485 26.2619 43.5822 26.3293C44.5497 26.3596 44.7047 27.0574 44.7081 27.8697C44.7081 30.472 42.3485 32.8248 39.4766 33.0405C39.1769 33.0657 38.8881 33.1646 38.6359 33.3285C38.3836 33.4924 38.1759 33.7161 38.031 33.9797C37.8862 34.2433 37.8088 34.5386 37.8058 34.8394C37.8028 35.1401 37.8742 35.437 38.0137 35.7034C38.28 36.2394 38.644 36.0405 38.9879 35.8585C40.3564 35.1203 41.8395 35.4304 43.2822 35.363C44.4013 35.3124 44.7384 35.9158 44.7115 36.9439C44.6407 39.4315 42.689 41.663 39.7058 41.9529C37.9766 42.1214 37.8957 42.8799 37.9497 44.1945C37.9901 45.2057 38.3744 45.1349 39.0822 44.8079C40.3362 44.2383 41.6744 44.181 43.0328 44.1978C44.3912 44.2147 44.8025 44.8214 44.7013 46.1057C44.5025 48.5933 42.2272 50.754 39.5103 50.9428C38.8733 50.9866 38.0811 50.7675 37.9867 51.7989C37.9092 52.6686 37.9463 53.3394 39.1564 53.2821C40.8418 53.2012 42.5272 53.2821 44.2126 53.2585C44.9946 53.2585 45.7766 53.3731 45.8643 54.2933C45.9384 55.0956 45.2879 55.5001 44.5631 55.5473C43.2148 55.6349 43.68 56.636 43.68 57.3001C43.653 67.9607 43.6474 78.6237 43.6631 89.2888C43.6631 92.5619 42.5137 93.6877 39.1901 93.6877C37.5047 93.6877 35.8193 93.6877 34.1339 93.6877C31.4879 93.6709 30.1901 92.4034 30.1834 89.7843C30.1631 84.3405 30.18 78.8967 30.18 73.4529Z" fill="#D7AF87"/>
<path d="M70.5821 91.3753C67.7776 91.3753 64.9495 91.1562 62.1551 91.4359C59.4315 91.709 57.6652 90.3741 56.0337 88.6314C52.8958 85.2965 50.9312 81.029 50.4382 76.4764C50.3304 75.6067 50.5495 75.1281 51.4191 74.8449C53.2056 74.2955 54.5 73.0382 55.6697 71.6562C59.1045 67.6112 62.2292 66.8494 67.1304 69.0505C69.1528 69.9708 71.118 71.0932 73.1371 72.064C77.8798 74.346 80.1989 74.009 84.1124 70.5371C84.1967 70.4629 84.2809 70.3854 84.3686 70.318C85.8787 69.1921 87.6045 67.9247 89.4248 68.5921C90.9618 69.1584 90.5944 71.255 90.7158 72.6371C91.1978 78.1719 89.7045 83.1741 86.1146 87.4887C85.6832 88.0078 85.2551 88.5303 84.7866 89.009C83.2023 90.6202 81.4731 91.6348 79.0057 91.4157C76.2146 91.1831 73.3899 91.3753 70.5821 91.3753Z" fill="#FEFEFE"/>
<path d="M70.6392 37.6955C71.9875 37.6955 73.3358 37.7696 74.6841 37.6752C75.9279 37.5842 76.3425 37.982 76.3257 39.2663C76.2549 44.0157 76.3257 48.7685 76.2751 53.5146C76.2751 54.6876 76.5886 55.2809 77.765 55.7326C82.2099 57.411 85.9287 60.5896 88.2785 64.7191C88.8549 65.7 88.7875 66.209 87.5639 66.3741C85.3594 66.6741 83.5493 67.8101 82.0459 69.3505C80.2021 71.2348 78.1594 71.5483 75.7526 70.6988C72.9886 69.7112 70.5819 68.0022 67.9021 66.8797C62.0066 64.382 57.8639 65.3932 53.7583 70.3719C53.1713 71.0461 52.5136 71.6552 51.7965 72.1887C51.6527 72.3256 51.4718 72.4171 51.2764 72.4518C51.081 72.4866 50.8797 72.4631 50.6976 72.3842C50.1549 72.1045 50.6167 71.7101 50.674 71.373C52.0223 63.7887 56.4043 58.6213 63.4526 55.7359C64.6189 55.2573 64.9425 54.6741 64.9324 53.5112C64.8819 48.7449 64.9324 43.9752 64.8886 39.2056C64.8717 38.0258 65.2425 37.6078 66.4223 37.682C67.8313 37.7528 69.2369 37.6955 70.6392 37.6955Z" fill="#FEFEFE"/>
<path d="M70.6358 31.9922C72.9954 31.9922 75.3549 32.0292 77.6942 31.9922C78.9987 31.9652 79.7774 32.3899 79.6459 33.8124C79.5246 35.1068 78.7897 35.3326 77.5459 35.2719C72.9051 35.0343 68.2552 35.0343 63.6145 35.2719C62.347 35.3393 61.6594 35.0292 61.565 33.745C61.4706 32.4607 62.1549 31.9618 63.4088 31.9854C65.8156 32.0225 68.2257 31.9955 70.6358 31.9922Z" fill="#FEFDFD"/>
<path d="M82.0124 45.4687C84.5304 45.2192 86.9203 45.9743 88.5585 48.4417C90.4832 51.3406 90.0349 55.7294 87.6719 58.0417C86.9068 58.79 86.3776 58.635 85.6967 58.0249C85.0158 57.4147 84.5101 57.0507 85.3124 56.0226C86.7349 54.2024 86.8191 52.0687 85.7742 50.0226C84.763 48.0372 82.9124 47.5923 80.8191 47.5282C79.9933 47.5013 78.3955 48.3979 78.4394 46.4968C78.4832 44.6631 80.0371 45.7788 80.8764 45.4855C81.1259 45.3945 81.4292 45.4687 82.0124 45.4687Z" fill="#FEFEFE"/>
<path d="M80.7753 49.8877C83.0237 49.8877 83.981 50.5888 84.0821 52.2978C84.2371 54.9944 83.0338 55.8169 80.681 54.5394C79.7641 54.0405 78.3214 54.0877 78.3652 52.3416C78.4225 49.8877 78.3147 49.8877 80.7753 49.8877Z" fill="#FEFDFD"/>
<path d="M41.3373 73.0518C41.3373 78.9574 41.3373 84.445 41.3373 89.936C41.3373 90.9068 40.9497 91.3888 39.9418 91.3787C37.9193 91.3585 35.8969 91.3585 33.8744 91.3787C32.8632 91.3787 32.4654 90.927 32.4688 89.9461C32.4845 85.5753 32.4845 81.2034 32.4688 76.8304C32.4688 76.1562 32.6474 75.7888 33.4092 75.7855C36.2306 75.7754 38.8429 75.1079 41.3373 73.0518Z" fill="#FEFEFE"/>
<path d="M32.4954 64.4765C32.4954 61.9552 32.5661 59.4203 32.4684 56.9158C32.4111 55.4833 33.2369 55.5911 34.1538 55.5945C35.0706 55.5979 35.9235 55.4698 35.8729 56.9057C35.7785 59.6024 35.8392 62.299 35.8493 64.972C35.8493 65.7608 35.7852 66.708 36.9212 66.6877C38.0572 66.6675 37.9493 65.7102 37.9527 64.9316C37.9527 62.2349 38.0133 59.5383 37.9324 56.8653C37.892 55.5675 38.6066 55.5338 39.5167 55.6046C40.3291 55.6686 41.3673 55.2338 41.3437 56.7844C41.2796 60.7619 41.401 64.7428 41.2864 68.717C41.2358 70.6046 39.601 71.4945 38.2527 72.4248C37.8203 72.6853 37.3526 72.8817 36.8639 73.008C32.9875 74.2046 32.4819 73.8439 32.4819 69.8462L32.4954 64.4765Z" fill="#FEFEFE"/>
<path d="M31.656 37.5235C33.4156 37.3584 34.6358 38.019 35.5088 39.5224C33.5335 39.991 32.5223 39.4651 31.656 37.5235Z" fill="#FBF9F8"/>
<path d="M38.4617 39.6876C38.5007 39.3619 38.6192 39.0508 38.8067 38.7816C38.9942 38.5124 39.245 38.2934 39.5369 38.1438C40.265 37.709 41.0201 37.3247 41.8965 37.5169C41.9976 37.5405 42.1527 37.7899 42.1223 37.8539C41.7853 38.7438 41.0403 39.2562 40.1943 39.6135C39.6401 39.8258 39.0319 39.8519 38.4617 39.6876Z" fill="#FCFAF8"/>
<path d="M31.7639 46.6719C33.7291 46.4158 34.5987 46.8944 35.3841 48.6675C33.5066 48.9337 32.4583 48.3573 31.7639 46.6719Z" fill="#FCFAF8"/>
<path d="M38.2529 48.6437C39.2035 47.0662 40.3361 46.2673 42.0889 46.6212C41.381 48.3538 40.3361 48.9302 38.2529 48.6437Z" fill="#FCFAF8"/>
<path d="M35.4046 30.6538C33.6754 30.8426 32.4046 30.4381 31.6968 28.7055C33.4294 28.5134 34.69 28.928 35.4046 30.6538Z" fill="#FDFDFC"/>
<path d="M42.1899 28.7258C41.4045 30.3707 40.1911 30.8359 38.6135 30.6943C39.0989 29.0561 39.8675 28.6078 42.1899 28.7258Z" fill="#FDFDFC"/>
</svg>
