<svg width="121" height="120" viewBox="0 0 121 120" fill="none" xmlns="http://www.w3.org/2000/svg">
<path d="M130.669 59.6011C130.669 82.684 130.68 105.766 130.702 128.847C130.702 129.98 130.48 130.202 129.347 130.202C83.1829 130.167 37.0193 130.167 -9.14433 130.202C-10.2779 130.202 -10.5 129.98 -10.5 128.847C-10.4624 82.6829 -10.4624 36.5193 -10.5 -9.64433C-10.5 -10.7779 -10.2779 -11 -9.14433 -11C37.0193 -10.9624 83.1829 -10.9624 129.347 -11C130.48 -11 130.706 -10.7779 130.702 -9.64433C130.66 13.4386 130.649 36.5204 130.669 59.6011Z" fill="#FEFEFE"/>
<path d="M58.2117 85.823C57.8802 89.9496 56.7599 91.65 53.9922 92.5152C53.4094 92.6803 52.8043 92.753 52.199 92.7306C46.4017 92.7306 40.5979 92.7306 34.8039 92.7306C31.3335 92.7306 29.1691 90.5463 28.9371 87.1157C28.3338 77.7154 27.7703 68.3119 26.9947 58.9415C26.3318 51.0527 31.3667 45.0467 37.9992 44.3075C39.2687 44.165 39.7129 42.8159 38.745 41.9077C38.4632 41.6513 38.244 41.3335 38.1043 40.9789C37.9647 40.6243 37.9083 40.2424 37.9395 39.8626C37.9395 37.433 37.913 35.0034 37.9395 32.5705C37.9793 29.9586 39.2024 28.7885 41.8442 28.7653C43.0573 28.7653 44.2704 28.7488 45.4902 28.7653C47.6845 28.7985 49.0136 30.005 49.0799 32.2158C49.1595 34.8675 49.0799 37.5192 49.1031 40.1709C49.1009 40.497 49.0291 40.8188 48.8925 41.1149C48.7559 41.411 48.5576 41.6746 48.3109 41.8879C47.3563 42.8491 47.7574 44.1915 49.0269 44.3075C55.2086 44.8843 60.27 50.7379 60.0778 57.2776C60.1035 57.4653 60.149 57.6497 60.2137 57.8278C61.8113 56.724 63.2863 55.5706 65.0099 54.8447C65.653 54.5729 65.6729 54.0624 65.6729 53.4857C65.6729 49.6208 65.6497 45.7527 65.6729 41.8845C65.6729 41.1156 65.3911 40.7277 64.7216 40.3532C62.9781 39.3787 62.1163 37.8739 62.3715 35.8188C62.6102 33.893 63.7835 32.723 65.5303 32.1727C66.3623 31.9142 66.412 31.5529 66.2463 30.8469C66.0308 29.9387 65.8585 29.0172 65.7093 28.0958C65.537 26.9953 65.9778 26.4385 67.1545 26.4385C71.2944 26.4617 75.441 26.4385 79.5776 26.4385C80.6648 26.4385 81.0858 26.9721 80.9565 27.9997C80.8996 28.4356 80.8143 28.8675 80.7013 29.2924C80.3068 30.7574 80.1179 31.7617 82.0768 32.6302C85.1826 34.0124 85.0998 38.3644 82.11 40.1875C81.2084 40.7377 80.9565 41.2979 80.9698 42.279C81.0195 45.8687 81.046 49.4584 80.9698 53.0481C80.9399 54.195 81.4239 54.6524 82.3387 55.1562C89.4817 59.0873 93.1841 65.1531 93.1907 73.3236C93.1907 80.9836 88.1857 88.3288 80.8504 91.1926C73.1075 94.2156 66.0308 92.8499 59.7961 87.3112C59.3188 86.9135 58.8647 86.4494 58.2117 85.823Z" fill="#D0AE8C"/>
<path d="M78.9313 48.4275C78.9313 50.4163 78.9777 52.4051 78.9147 54.3938C78.8749 55.5175 79.2163 56.1539 80.3102 56.6743C87.5625 60.1347 91.1456 65.8922 90.9169 73.9732C90.7015 82.1371 83.4822 89.7607 75.3383 90.4103C65.769 91.1727 58.1686 85.6207 56.0108 76.2934C54.2905 68.8455 58.4139 60.4098 65.5966 57.0687C67.2539 56.2997 67.8738 55.4412 67.8008 53.6116C67.645 49.8661 67.8008 46.1073 67.7312 42.3419C67.708 41.1022 68.1356 40.7045 69.3521 40.7376C72.0038 40.8072 74.6554 40.8304 77.3071 40.7376C78.686 40.6846 79.0108 41.2315 78.9644 42.4811C78.8749 44.4533 78.9313 46.4421 78.9313 48.4275Z" fill="#FEFEFE"/>
<path d="M43.548 90.4502C40.6775 90.4502 37.8038 90.4502 34.93 90.4502C32.5335 90.4502 31.4397 89.5221 31.2375 87.1886C30.895 83.2951 30.5956 79.3971 30.3393 75.4947C29.9647 69.9461 29.7957 64.3742 29.2521 58.8421C28.4499 50.6749 34.5024 45.6831 41.4067 46.3295C44.1446 46.5847 46.9289 46.0279 49.6535 46.6377C51.9631 47.1431 54.0308 48.4221 55.5143 50.263C56.9978 52.1039 57.8079 54.3963 57.8107 56.7605C57.8851 58.9474 57.3256 61.1091 56.1998 62.9854C52.6532 69.0113 52.514 75.3257 55.5369 81.6566C56.6804 84.0464 55.9976 86.4163 55.4076 88.72C55.0762 89.9663 53.8431 90.4701 52.4875 90.4602C49.5109 90.427 46.5278 90.4502 43.548 90.4502Z" fill="#FEFEFE"/>
<path d="M73.3595 38.7191C71.0725 38.5368 68.8616 38.9081 66.6707 38.4838C65.1691 38.1888 64.2875 37.3137 64.5029 36.1404C64.7714 34.6985 65.8453 34.0787 67.1546 34.1516C71.2731 34.4334 75.4061 34.4334 79.5247 34.1516C80.8505 34.0588 81.9046 34.6587 82.1532 36.1238C82.3686 37.3734 81.593 38.1755 80.0285 38.4739C77.768 38.918 75.5008 38.5335 73.3595 38.7191Z" fill="#FEFEFE"/>
<path d="M40.2134 35.5834C40.2134 34.5393 40.2333 33.4952 40.2134 32.4511C40.1869 31.3473 40.704 30.8203 41.7945 30.8203H45.2582C46.3554 30.8203 46.8525 31.3838 46.8459 32.4776C46.8459 34.5128 46.7995 36.548 46.8459 38.5798C46.8757 39.5742 46.4515 39.7896 45.5731 39.7565C44.2009 39.7035 42.8187 39.6803 41.4497 39.7565C40.3791 39.8195 40.1239 39.3521 40.1902 38.4008C40.2565 37.4495 40.2134 36.5181 40.2134 35.5834Z" fill="#FEFEFE"/>
<path d="M73.3131 31.828H70.5089C68.7522 31.828 68.129 31.1154 68.1887 29.3487C68.2086 28.7355 68.55 28.7587 68.9245 28.7587C71.8414 28.7587 74.756 28.7587 77.6685 28.7587C78.0762 28.7587 78.7159 28.6957 78.4607 29.4216C78.1491 30.29 78.7093 31.7419 77.1116 31.828C75.8454 31.8877 74.5793 31.8247 73.3131 31.828Z" fill="#FEFEFE"/>
<path d="M43.3225 44.0226C42.6828 43.7276 41.1481 44.8015 41.2575 42.8426C41.2575 42.5111 41.284 42.1001 41.7017 42.0835C42.9016 42.0404 44.1081 42.0106 45.3046 42.0835C45.9178 42.1167 45.7753 42.7199 45.7952 43.1342C45.8184 43.6149 45.7057 44.0192 45.1091 44.0292C44.5125 44.0391 44.0153 44.0226 43.3225 44.0226Z" fill="#FDFCFB"/>
<path d="M72.08 75.087C72.4711 74.2882 72.2325 73.5689 72.3021 72.8828C72.3949 72.0045 71.9706 71.6962 71.1221 71.4675C66.896 70.3405 64.3073 67.606 63.4985 63.2738C63.0842 61.0828 63.7637 60.4729 65.9646 60.8143C67.3066 60.9939 68.5949 61.4578 69.7433 62.1752C70.8916 62.8926 71.8736 63.8468 72.6236 64.9742C73.1871 65.7896 73.4722 65.8989 74.0622 65.0007C75.6664 62.5578 77.9867 61.2353 80.8637 60.7878C82.8691 60.4763 83.5784 61.0795 83.2403 63.0749C82.5774 66.9033 80.4693 69.6146 76.863 71.0863C74.3373 72.1171 74.3207 72.0807 74.4466 74.9246C75.2355 74.8616 75.6233 74.1888 76.1537 73.7977C77.7014 72.6325 79.5541 71.9416 81.4869 71.8089C83.0282 71.6995 83.4193 72.432 83.2801 73.7977C82.8724 77.7752 80.0682 81.3185 76.22 82.293C74.745 82.6675 74.1284 83.2575 74.387 84.7325C74.4086 84.953 74.4086 85.175 74.387 85.3955C74.387 86.1711 74.4765 87.0892 73.3429 87.0826C72.2093 87.076 72.2093 86.1214 72.3319 85.3822C72.6634 83.4398 71.8215 82.6808 69.9819 82.0974C66.1005 80.8644 64.0156 77.9011 63.4554 73.9302C63.1902 72.1072 63.5979 71.7426 65.4011 71.8354C67.2863 71.927 69.0916 72.6244 70.5487 73.8242C71.0392 74.2319 71.5331 74.6396 72.08 75.087Z" fill="#D0AE8D"/>
<path d="M51.2013 62.3256C51.2245 66.5219 50.2898 69.8266 47.4923 72.3921C46.4317 73.3801 45.0397 73.9355 43.5902 73.949C42.1408 73.9625 40.7387 73.4331 39.6599 72.465C35.4437 68.5902 35.3111 63.7078 36.4281 58.5801C36.7234 57.2839 37.2881 56.0642 38.0854 55.0003C41.2708 50.635 46.6205 50.9101 49.3319 55.5903C50.6246 57.8343 51.3273 60.2341 51.2013 62.3256Z" fill="#D0AE8D"/>
<path d="M43.5281 76.1741H49.6336C50.396 76.1741 51.1517 76.2503 51.1484 77.2414C51.1484 78.1463 50.4855 78.4479 49.6834 78.4479C45.56 78.4479 41.4366 78.4678 37.3132 78.4479C36.5542 78.4479 35.8482 78.2059 35.8913 77.2314C35.9344 76.2569 36.6603 76.1774 37.4259 76.1807C39.4611 76.1741 41.493 76.1741 43.5281 76.1741Z" fill="#D1AF8E"/>
<path d="M43.5512 82.8033C41.516 82.8033 39.4842 82.8033 37.449 82.8033C36.6833 82.8033 35.9475 82.7503 35.8977 81.7692C35.8447 80.6886 36.6502 80.5295 37.4589 80.5262C41.5271 80.5085 45.5952 80.5085 49.6633 80.5262C50.4522 80.5262 51.1284 80.8112 51.1483 81.7128C51.1715 82.7072 50.4257 82.8033 49.6534 82.8C47.6182 82.8022 45.5841 82.8033 43.5512 82.8033Z" fill="#D1AF8E"/>
<path d="M80.8339 63.2473C80.3997 66.0283 78.1524 68.5507 75.5836 69.2136C74.8444 69.4059 74.5627 69.2832 74.7383 68.4546C75.2521 66.0117 78.2817 63.3998 80.8339 63.2473Z" fill="#FDFDFD"/>
<path d="M80.804 74.9312C80.7277 76.794 77.3071 80.1948 75.2852 80.334C74.4764 80.387 74.6753 79.9031 74.7449 79.502C75.0763 77.4602 77.9037 74.6428 79.9886 74.2484C80.3897 74.1854 80.9233 73.9931 80.804 74.9312Z" fill="#FEFDFD"/>
<path d="M65.6465 63.0518C68.9412 63.6484 70.7609 65.5311 71.8614 68.2524C71.984 68.5573 72.1464 68.9153 71.921 69.1904C71.6956 69.4655 71.2913 69.2501 71.0128 69.1573C68.1391 68.2192 66.5149 66.1609 65.6465 63.0518Z" fill="#FEFDFD"/>
<path d="M66.4451 74.1853C68.4074 74.1853 71.8015 77.6159 71.9706 79.7273C72.0104 80.2378 71.8977 80.3903 71.3408 80.3107C69.2559 80.029 66.1833 76.963 65.885 74.8648C65.8087 74.3444 65.9347 74.1588 66.4451 74.1853Z" fill="#FEFDFD"/>
<path d="M37.9331 62.8726C38.0624 60.5259 38.596 58.2985 39.8987 56.3064C41.7847 53.4227 44.9302 53.3464 46.9654 56.1274C49.7696 59.9558 49.7497 65.9618 46.919 69.767C44.9302 72.4485 41.8046 72.3822 39.9583 69.5913C38.5894 67.5561 38.0392 65.2823 37.9331 62.8726Z" fill="#FEFEFE"/>
</svg>
