<svg width="24" height="24" viewBox="0 0 24 24" fill="none" xmlns="http://www.w3.org/2000/svg">
<path d="M19.5 3.75H4.5C3.25736 3.75 2.25 4.75736 2.25 6V19.5C2.25 20.7426 3.25736 21.75 4.5 21.75H19.5C20.7426 21.75 21.75 20.7426 21.75 19.5V6C21.75 4.75736 20.7426 3.75 19.5 3.75Z" stroke="#D1AF8D" stroke-width="1.5" stroke-linejoin="round"/>
<path d="M14.9766 10.875C14.9766 11.4834 14.4834 11.9766 13.875 11.9766C13.2666 11.9766 12.7734 11.4834 12.7734 10.875C12.7734 10.2666 13.2666 9.77344 13.875 9.77344C14.4834 9.77344 14.9766 10.2666 14.9766 10.875Z" fill="#D1AF8D" stroke="#D1AF8D" stroke-width="0.046875"/>
<path d="M18.7266 10.875C18.7266 11.4834 18.2334 11.9766 17.625 11.9766C17.0166 11.9766 16.5234 11.4834 16.5234 10.875C16.5234 10.2666 17.0166 9.77344 17.625 9.77344C18.2334 9.77344 18.7266 10.2666 18.7266 10.875Z" fill="#D1AF8D" stroke="#D1AF8D" stroke-width="0.046875"/>
<path d="M14.9766 14.625C14.9766 15.2334 14.4834 15.7266 13.875 15.7266C13.2666 15.7266 12.7734 15.2334 12.7734 14.625C12.7734 14.0166 13.2666 13.5234 13.875 13.5234C14.4834 13.5234 14.9766 14.0166 14.9766 14.625Z" fill="#D1AF8D" stroke="#D1AF8D" stroke-width="0.046875"/>
<path d="M18.7266 14.625C18.7266 15.2334 18.2334 15.7266 17.625 15.7266C17.0166 15.7266 16.5234 15.2334 16.5234 14.625C16.5234 14.0166 17.0166 13.5234 17.625 13.5234C18.2334 13.5234 18.7266 14.0166 18.7266 14.625Z" fill="#D1AF8D" stroke="#D1AF8D" stroke-width="0.046875"/>
<path d="M7.47656 14.625C7.47656 15.2334 6.98338 15.7266 6.375 15.7266C5.76662 15.7266 5.27344 15.2334 5.27344 14.625C5.27344 14.0166 5.76662 13.5234 6.375 13.5234C6.98338 13.5234 7.47656 14.0166 7.47656 14.625Z" fill="#D1AF8D" stroke="#D1AF8D" stroke-width="0.046875"/>
<path d="M11.2266 14.625C11.2266 15.2334 10.7334 15.7266 10.125 15.7266C9.51662 15.7266 9.02344 15.2334 9.02344 14.625C9.02344 14.0166 9.51662 13.5234 10.125 13.5234C10.7334 13.5234 11.2266 14.0166 11.2266 14.625Z" fill="#D1AF8D" stroke="#D1AF8D" stroke-width="0.046875"/>
<path d="M6.375 19.5C6.99632 19.5 7.5 18.9963 7.5 18.375C7.5 17.7537 6.99632 17.25 6.375 17.25C5.75368 17.25 5.25 17.7537 5.25 18.375C5.25 18.9963 5.75368 19.5 6.375 19.5Z" fill="#D1AF8D"/>
<path d="M10.125 19.5C10.7463 19.5 11.25 18.9963 11.25 18.375C11.25 17.7537 10.7463 17.25 10.125 17.25C9.50368 17.25 9 17.7537 9 18.375C9 18.9963 9.50368 19.5 10.125 19.5Z" fill="#D1AF8D"/>
<path d="M13.875 19.5C14.4963 19.5 15 18.9963 15 18.375C15 17.7537 14.4963 17.25 13.875 17.25C13.2537 17.25 12.75 17.7537 12.75 18.375C12.75 18.9963 13.2537 19.5 13.875 19.5Z" fill="#D1AF8D"/>
<path d="M6 2.25V3.75" stroke="#D1AF8D" stroke-width="1.5" stroke-linecap="round" stroke-linejoin="round"/>
<path d="M18 2.25V3.75" stroke="#D1AF8D" stroke-width="1.5" stroke-linecap="round" stroke-linejoin="round"/>
<path d="M21.75 7.5H2.25" stroke="#D1AF8D" stroke-width="1.5" stroke-linejoin="round"/>
</svg>
