<svg width="20" height="20" viewBox="0 0 20 20" fill="none" xmlns="http://www.w3.org/2000/svg">
<path d="M11.3888 6.75934C11.3888 7.01503 11.5961 7.2223 11.8518 7.2223H13.6421C13.9206 7.2223 14.1361 7.46637 14.1015 7.74269L13.8701 9.59454C13.8411 9.82622 13.6442 10.0001 13.4107 10.0001H11.8518C11.5961 10.0001 11.3888 10.2074 11.3888 10.463V17.8705C11.3888 18.1261 11.1815 18.3334 10.9258 18.3334H8.24934C7.99365 18.3334 7.78638 18.1261 7.78638 17.8705V10.463C7.78638 10.2074 7.5791 10.0001 7.32341 10.0001H6.29621C6.04053 10.0001 5.83325 9.79281 5.83325 9.53712V7.68527C5.83325 7.42958 6.04053 7.2223 6.29621 7.2223H7.32341C7.5791 7.2223 7.78638 7.01503 7.78638 6.75934V5.35598C7.78638 4.14071 8.0902 3.22925 8.69784 2.62161C9.30547 1.98504 10.3182 1.66675 11.736 1.66675H13.7036C13.9593 1.66675 14.1666 1.87402 14.1666 2.12971V3.98156C14.1666 4.23725 13.9593 4.44453 13.7036 4.44453H12.6909C12.1411 4.44453 11.7794 4.53133 11.6058 4.70494C11.4611 4.87855 11.3888 5.16791 11.3888 5.573V6.75934Z" fill="#FDFDFB"/>
</svg>
