<svg width="26" height="13" viewBox="0 0 26 13" fill="none" xmlns="http://www.w3.org/2000/svg">
<path fill-rule="evenodd" clip-rule="evenodd" d="M23.3629 3.33858C21.2143 5.6372 18.5837 7.43194 15.6598 8.59411C16.1182 8.71962 16.5433 8.94461 16.9049 9.25305C17.2665 9.5615 17.5556 9.94584 17.7518 10.3787C17.8224 10.5444 17.5742 10.6988 17.4691 10.5403C17.2072 10.1079 16.8626 9.73159 16.4549 9.43285C16.0472 9.13411 15.5845 8.91885 15.0934 8.79943C13.7803 9.28043 12.42 9.6208 11.0352 9.81484C11.7653 10.1693 12.4883 10.4962 13.198 10.9062C13.4624 11.0496 13.2995 11.4804 13.0283 11.3439C12.2147 10.9416 11.4215 10.4907 10.6215 10.0536C10.5904 10.0377 10.5638 10.0142 10.5442 9.98528C10.5246 9.95637 10.5126 9.923 10.5093 9.88823C9.13882 10.0435 7.75436 10.0288 6.38746 9.84432C9.46265 11.5658 12.9635 12.806 16.4027 11.4768C19.8419 10.1476 22.0113 6.77107 23.3629 3.33858ZM15.0547 3.86776C12.9046 4.11719 10.8372 4.84333 9.00339 5.99324C7.53574 6.98836 6.24949 8.1483 4.59813 8.68076C5.42104 8.88579 6.25799 9.02973 7.10212 9.1114C8.57047 7.97666 9.95013 6.73159 11.2291 5.38701C11.394 5.21948 11.6863 5.38343 11.5287 5.61326C10.4306 6.99337 9.12987 8.1993 7.67075 9.19006C8.96554 9.28237 10.2666 9.2257 11.5485 9.02115C12.9505 8.21636 14.1595 7.11461 15.0906 5.79316C15.2345 5.59116 15.527 5.78975 15.3902 6.01941C14.6463 7.15027 13.6629 8.10386 12.5097 8.81274C12.8417 8.74087 13.2012 8.66186 13.5053 8.56943C14.5605 8.26782 15.5867 7.87265 16.5716 7.38861C17.4601 6.50857 18.2027 5.49262 18.7716 4.37894C18.8808 4.17028 19.2142 4.29235 19.126 4.52163C18.7773 5.37606 18.2685 6.15594 17.627 6.81926C19.9095 5.44397 21.9642 3.72192 23.7173 1.7149C21.1103 3.16919 18.0155 3.35968 15.0478 3.86088L15.0547 3.86776ZM16.506 12.2795C12.1334 13.8308 7.74548 11.6555 4.08352 9.30821C2.66534 8.87522 1.32508 8.21933 0.113023 7.36514C-0.0263211 7.26233 0.110202 7.00496 0.270163 7.08683C1.23707 7.5769 2.24084 7.99056 3.27229 8.32402C3.33093 8.24783 3.41343 8.19352 3.5066 8.16979C5.85901 7.81887 7.417 5.97796 9.38919 4.84034C10.8362 4.0448 12.4127 3.51182 14.0456 3.26609C17.4212 2.65779 21.1694 2.75311 24.1545 0.928728L24.3028 0.408046C24.3767 0.116536 24.7786 0.134168 24.9395 0.333789L25.1524 0.103532C25.1943 0.0490092 25.256 0.0133355 25.3242 0.00435875C25.3923 -0.004619 25.4612 0.0138352 25.5157 0.0556629C25.5702 0.0974897 25.6059 0.159262 25.6149 0.227392C25.6239 0.295522 25.6054 0.364429 25.5636 0.418951C25.3174 0.829569 25.0436 1.2404 24.7557 1.63057C23.5773 5.94142 20.761 10.75 16.4575 12.2799L16.506 12.2795Z" fill="#D1AF8D"/>
</svg>
