<svg width="39" height="54" viewBox="0 0 39 54" fill="none" xmlns="http://www.w3.org/2000/svg">
<path d="M19.5 1.81375C9.87305 1.81375 2.0625 9.2477 2.0625 18.4036C2.0625 28.9388 13.6875 45.6339 17.9561 51.4004C18.1332 51.6439 18.3655 51.8419 18.6338 51.9785C18.9021 52.1151 19.1989 52.1863 19.5 52.1863C19.8011 52.1863 20.0979 52.1151 20.3662 51.9785C20.6345 51.8419 20.8668 51.6439 21.0439 51.4004C25.3125 45.6364 36.9375 28.9472 36.9375 18.4036C36.9375 9.2477 29.127 1.81375 19.5 1.81375Z" fill="#DFCCA9" stroke="#DFCCA9" stroke-width="2.83" stroke-linecap="round" stroke-linejoin="round"/>
<path fill-rule="evenodd" clip-rule="evenodd" d="M14.6141 17.46C14.9349 17.459 15.2524 17.3967 15.5483 17.2766C15.8443 17.1565 16.1129 16.981 16.3389 16.7602C16.5648 16.5393 16.7437 16.2774 16.8651 15.9895C16.9866 15.7015 17.0484 15.3932 17.0468 15.082C17.0388 14.7806 16.9695 14.4836 16.8427 14.2082C16.7159 13.9329 16.5343 13.6845 16.3082 13.4775C16.0821 13.2704 15.8161 13.1088 15.5253 13.0018C15.2346 12.8948 14.9249 12.8446 14.6141 12.8541H11.9725V17.46H14.6141ZM10 11.3538C10 11.2603 10.0383 11.1706 10.1065 11.1045C10.1747 11.0384 10.2671 11.0013 10.3636 11.0013H14.7301C15.8626 11.0013 16.9486 11.4375 17.7494 12.2141C18.5501 12.9906 19 14.0438 19 15.142C19 16.2403 18.5501 17.2935 17.7494 18.07C16.9486 18.8466 15.8626 19.2828 14.7301 19.2828H11.9725V23.6487C11.967 23.7404 11.9269 23.827 11.8599 23.892C11.7929 23.957 11.7036 23.9959 11.6089 24.0013H10.3636C10.2689 23.9959 10.1796 23.957 10.1126 23.892C10.0456 23.827 10.0055 23.7404 10 23.6487V11.3538Z" fill="#FDFDFB"/>
<path fill-rule="evenodd" clip-rule="evenodd" d="M22.256 17.5567L22.0041 17.0529C21.975 16.993 21.9697 16.9242 21.9893 16.8604C22.009 16.7967 22.0521 16.7429 22.11 16.7098L24.9318 15.0634C25.045 14.9904 25.2969 14.9539 25.4064 15.1145L25.8189 15.914C25.8439 15.9478 25.8614 15.9866 25.8702 16.0278C25.8789 16.069 25.8788 16.1115 25.8699 16.1527C25.8609 16.1938 25.8432 16.2325 25.8181 16.2663C25.7929 16.3 25.7608 16.328 25.724 16.3484L22.6868 17.6479C22.4385 17.7575 22.3144 17.7173 22.2414 17.5567H22.256ZM20.0146 19.3308C20.0146 19.2398 20.0508 19.1525 20.1151 19.0882C20.1795 19.0238 20.2667 18.9877 20.3578 18.9877H27.5894C27.6344 18.9872 27.6791 18.9957 27.7207 19.0129C27.7624 19.03 27.8002 19.0553 27.8319 19.0873C27.8635 19.1193 27.8884 19.1574 27.9051 19.1992C27.9218 19.241 27.9299 19.2858 27.9289 19.3308V20.342C27.9294 20.3869 27.9209 20.4314 27.9041 20.4731C27.8872 20.5147 27.8623 20.5525 27.8307 20.5844C27.7992 20.6163 27.7616 20.6417 27.7201 20.659C27.6787 20.6763 27.6343 20.6852 27.5894 20.6852H21.8617V24.8577H26.6914C26.7806 24.8638 26.8645 24.9026 26.9271 24.9665C26.9897 25.0304 27.0266 25.1151 27.0309 25.2045V26.2157C27.0313 26.2606 27.0229 26.3051 27.0061 26.3467C26.9892 26.3883 26.9643 26.4262 26.9327 26.4581C26.9011 26.49 26.8636 26.5153 26.8221 26.5326C26.7807 26.5499 26.7362 26.5588 26.6914 26.5588H21.8617V29.9684H27.5748C27.6198 29.9679 27.6645 29.9764 27.7061 29.9935C27.7478 30.0107 27.7856 30.036 27.8173 30.068C27.8489 30.1 27.8738 30.1381 27.8905 30.1799C27.9072 30.2217 27.9153 30.2665 27.9143 30.3115V31.3081C27.9148 31.353 27.9063 31.3975 27.8895 31.4391C27.8726 31.4808 27.8477 31.5186 27.8161 31.5505C27.7846 31.5824 27.747 31.6078 27.7055 31.6251C27.6641 31.6424 27.6197 31.6513 27.5748 31.6513H20.3431C20.2538 31.646 20.1696 31.6082 20.1063 31.545C20.043 31.4817 20.0052 31.3974 20 31.3081L20.0146 19.3308Z" fill="#FDFDFB"/>
</svg>
