<svg width="121" height="120" viewBox="0 0 121 120" fill="none" xmlns="http://www.w3.org/2000/svg">
<path d="M0.530337 59.8281C0.530337 40.3562 0.520225 20.8809 0.5 1.40225C0.5 0.289888 0.668539 0 1.84831 0C40.9225 0.0426966 79.9944 0.0426966 119.064 0C120.345 0 120.5 0.337079 120.5 1.49326C120.466 40.5 120.466 79.5067 120.5 118.513C120.5 119.676 120.325 120 119.057 120C79.9899 119.957 40.9202 119.957 1.84831 120C0.644944 120 0.5 119.697 0.5 118.594C0.540449 99.0034 0.550562 79.4146 0.530337 59.8281Z" fill="#FEFEFE"/>
<path d="M60.4999 93.7079C57.1291 93.7079 53.7583 93.6338 50.3875 93.745C49.038 93.7939 47.7213 93.322 46.71 92.4271C41.2493 87.954 38.0471 82.2203 38.0033 75.145C37.9426 65.8855 42.1426 58.9012 50.3875 54.5832C52.0325 53.7237 52.6932 52.854 52.5347 51.0237C52.3595 48.9641 52.5347 46.8742 52.4774 44.7978C52.4774 44.2518 52.8347 43.399 51.9516 43.254C51.1257 43.1192 50.2662 42.9169 49.5651 43.9282C48.6899 45.2007 47.5645 46.2814 46.2576 47.1044C44.9507 47.9274 43.4897 48.4753 41.9639 48.7147C36.2336 49.7259 30.1359 45.381 29.155 39.6608C28.2516 34.3214 31.1774 29.7675 34.5145 27.8967C38.9842 25.3888 43.7977 25.8338 47.8022 29.1945C48.4081 29.6945 48.9245 30.2941 49.3291 30.9675C49.9628 32.0428 50.9336 31.945 51.8404 31.763C52.8954 31.5506 52.4505 30.5765 52.4639 29.9293C52.5213 26.3394 52.501 26.3394 56.0909 26.3394C59.5123 26.3394 62.937 26.39 66.3583 26.3158C67.7977 26.2821 68.3808 26.8417 68.4752 28.2439C68.6741 31.8304 68.6977 31.827 72.2977 31.827C76.2752 31.827 76.2752 31.827 76.2752 35.7405C76.2752 37.6484 76.2752 39.5563 76.2752 41.4709C76.2752 42.6641 75.7359 43.2203 74.5359 43.2035C72.9651 43.1799 71.3909 43.2439 69.8168 43.1832C68.8055 43.1428 68.4111 43.4461 68.4347 44.5046C68.4954 47.1405 68.492 49.7799 68.4347 52.4158C68.4145 53.3731 68.8325 53.7641 69.6583 54.1282C78.2471 58.0181 83.5426 66.5765 82.9392 75.9978C82.4875 83.0428 79.2314 88.6922 73.555 92.9293C72.8001 93.4773 71.8811 93.7519 70.9493 93.7079C67.4606 93.6675 63.9819 93.7079 60.4999 93.7079Z" fill="#D2B292"/>
<path d="M84.6112 31.8001C85.791 31.8001 86.9708 31.8001 88.1472 31.8001C88.7202 31.8001 89.2966 31.7327 89.4955 31.045C89.5655 30.8577 89.5695 30.6522 89.507 30.4622C89.4445 30.2723 89.3192 30.1093 89.1517 30.0001C88.5753 29.5788 88.1135 29.7743 87.6685 30.2226C87.0719 30.8226 86.364 31.0046 85.7539 30.354C85.0798 29.6327 85.6191 29.0057 86.1449 28.4664C87.1899 27.4046 88.3899 27.0675 89.8191 27.6776C91.2483 28.2877 92.0337 29.4776 91.9764 30.9743C91.9717 31.6909 91.7199 32.3839 91.2637 32.9366C90.8075 33.4892 90.1746 33.8676 89.4719 34.008C86.6034 34.6417 83.664 34.2574 80.7584 34.2473C80.6007 34.2553 80.4431 34.2305 80.2954 34.1745C80.1478 34.1186 80.0134 34.0326 79.9006 33.9221C79.7879 33.8115 79.6992 33.6788 79.6403 33.5323C79.5814 33.3858 79.5535 33.2287 79.5584 33.0709C79.5584 32.2552 80.1651 31.8743 80.9067 31.8439C82.1404 31.79 83.3741 31.8439 84.6146 31.8439L84.6112 31.8001Z" fill="#D1B08F"/>
<path d="M84.7866 40.8438C86.0743 40.8438 87.3754 40.736 88.6495 40.8708C90.1934 41.0326 91.3731 41.7978 91.8484 43.4157C92.29 44.9157 91.717 46.0348 90.6046 46.9584C89.4248 47.936 88.1473 47.909 86.8563 47.1944C86.5603 47.0352 86.2972 46.8213 86.081 46.5641C85.6226 45.9876 85.1439 45.3641 85.8349 44.6427C86.4417 44.0124 87.0248 44.191 87.5642 44.7708C87.7572 45.0174 88.0357 45.1826 88.3446 45.2338C88.6536 45.285 88.9705 45.2184 89.2327 45.0472C89.6068 44.8247 89.6001 44.373 89.4821 43.9787C89.2833 43.3281 88.7203 43.1832 88.1338 43.1764C85.8866 43.1562 83.6462 43.1562 81.4125 43.1764C80.5158 43.1764 79.6293 43.1562 79.6833 41.9292C79.7338 40.8034 80.6136 40.8506 81.4125 40.8438C82.5349 40.8438 83.654 40.8438 84.7832 40.8438H84.7866Z" fill="#D2B292"/>
<path d="M85.3056 36.4044H89.3506C90.0854 36.4044 90.773 36.5426 90.7865 37.4157C90.8 38.2887 90.1831 38.7033 89.3472 38.7067C86.5427 38.7202 83.7337 38.7202 80.9202 38.7067C80.1214 38.7067 79.6393 38.3055 79.6865 37.4595C79.7303 36.7011 80.1989 36.3909 80.9236 36.3943L85.3056 36.4044Z" fill="#D2B292"/>
<path d="M60.4798 91.3652C57.2809 91.3652 54.0753 91.3214 50.8865 91.3888C49.8222 91.4439 48.7767 91.0934 47.9607 90.4079C43.4539 86.7 40.9494 81.9202 40.3697 76.1124C40.3056 75.4652 40.518 75.209 41.0809 75.0202C43.0629 74.3461 44.4517 72.9135 45.8337 71.3966C49.2551 67.5944 52.4506 66.9472 57.1292 69.0944C59.927 70.3753 62.482 72.1281 65.4618 73.0618C68.4416 73.9955 70.9865 73.4663 73.2146 71.3056C74.6472 69.9135 76.2213 68.8483 78.2708 68.5349C79.3157 68.3764 79.7843 68.609 80.0742 69.6573C82.127 77.073 78.9652 86.1371 72.736 90.6304C72.067 91.1373 71.2458 91.4023 70.4067 91.382C67.1 91.3483 63.7899 91.3652 60.4798 91.3652Z" fill="#FEFEFD"/>
<path d="M66.1797 49.109C65.1921 53.2551 66.5168 55.7832 70.7539 57.3607C74.2022 58.6416 76.4572 61.7596 78.2741 65.0158C78.7898 65.9394 78.4763 66.2461 77.6438 66.3371C75.2168 66.6034 73.3527 67.9315 71.7011 69.5562C69.9617 71.272 68.037 71.4944 65.8292 70.7596C63.0921 69.8495 60.7528 68.1405 58.1235 67.0281C51.7764 64.3315 47.7651 65.2989 43.4707 70.5944C43.0047 71.1513 42.4569 71.6344 41.846 72.027C41.5359 72.236 41.1719 72.5899 40.7842 72.327C40.3966 72.0641 40.5651 71.5956 40.6258 71.2281C41.0872 68.4611 42.1204 65.8207 43.6595 63.4753C45.9701 59.9197 49.3701 57.2081 53.3505 55.7461C54.5235 55.2978 54.8707 54.7045 54.8438 53.5315C54.7797 50.5618 54.8438 47.5854 54.8033 44.6158C54.7831 43.5641 55.0359 43.1158 56.1954 43.1427C59.1078 43.2169 62.0269 43.2 64.9426 43.1427C65.8932 43.1427 66.2337 43.4461 66.1999 44.3967C66.1393 45.9675 66.1797 47.5281 66.1797 49.109Z" fill="#FEFEFD"/>
<path d="M40.2349 28.6516C42.5846 28.6331 44.8477 29.5374 46.5376 31.17C48.2276 32.8025 49.2094 35.0331 49.272 37.3819C49.3833 42.2797 45.1597 46.5606 40.2451 46.5336C35.4552 46.5067 31.208 42.4213 31.2922 37.6449C31.4001 31.6853 36.0956 28.5437 40.2349 28.6516Z" fill="#FEFEFD"/>
<path d="M62.3676 40.8337C59.0608 40.8337 55.7574 40.8067 52.4507 40.8337C51.4698 40.8337 51.1024 40.7123 51.308 39.5494C51.5575 38.1696 51.5575 36.7562 51.308 35.3764C51.0147 33.9472 51.7226 33.9775 52.6091 34.1056C55.5653 34.5404 58.535 34.3078 61.4945 34.3078C65.1855 34.3078 68.8765 34.2 72.5642 34.0719C73.6597 34.0348 74.0709 34.3753 74.0001 35.491C73.9187 36.8381 73.9187 38.1888 74.0001 39.5359C74.0642 40.6078 73.6159 40.8607 72.6282 40.8472C69.2035 40.8067 65.7855 40.8337 62.3676 40.8337Z" fill="#FEFEFD"/>
<path d="M60.4999 28.6516C61.9561 28.6516 63.4156 28.7224 64.8819 28.628C66.1258 28.5505 66.2302 29.2078 66.2033 30.1718C66.1729 31.0516 66.2741 31.8269 64.9527 31.7932C61.9864 31.719 59.019 31.719 56.0505 31.7932C54.7022 31.8235 54.8505 31.028 54.8134 30.1617C54.7696 29.1775 54.9179 28.5539 56.1617 28.628C57.5909 28.7056 59.0505 28.6516 60.4999 28.6516Z" fill="#FEFEFD"/>
<path d="M33.5606 36.7887C33.7292 33.8257 36.8202 30.8527 39.8438 30.7617C40.5651 30.7415 41.2292 30.9269 41.3067 31.7965C41.3842 32.6662 40.9123 32.9291 40.1067 33.0808C37.3528 33.5932 36.2404 34.6785 35.8966 37.1257C35.7752 37.9819 35.5797 38.7201 34.5483 38.683C33.8708 38.6392 33.5 37.8606 33.5606 36.7887Z" fill="#D2B292"/>
</svg>
