<svg width="121" height="120" viewBox="0 0 121 120" fill="none" xmlns="http://www.w3.org/2000/svg">
<path d="M92.4316 58.3608C90.1873 52.9432 85.92 49.7513 80.3029 48.439C78.869 48.1023 78.5698 47.5787 78.6009 46.2134C78.7201 41.5385 77.8501 36.8912 76.048 32.576C75.2033 30.5561 74.1279 28.6609 72.4727 27.1771C70.2907 25.2289 68.1305 25.7526 67.1268 28.4614C66.9173 29.1001 66.7547 29.7533 66.6406 30.4158C66.3288 31.9369 66.5034 33.4893 66.4099 35.2473L64.3432 33.2493C62.9249 31.8746 61.4412 30.5654 59.5553 29.8703C57.3204 29.0474 55.7556 30.0449 55.5031 32.4139C55.3816 33.6034 55.4691 34.805 55.7618 35.9643C57.3546 42.4884 60.8489 47.8093 66.0483 52.0174C66.7341 52.5754 67.7284 52.9121 66.8556 54.1496C66.332 54.8914 66.1543 55.864 65.7085 56.6713C65.5496 56.955 65.1475 56.6433 64.8918 56.4967C60.291 53.922 55.3535 53.7381 50.3785 54.6732C42.3582 56.1913 36.3515 60.3557 33.5461 68.3512C33.2655 69.1616 32.7481 69.2863 32.081 69.4609C29.3785 70.1747 27.636 72.7214 27.7545 75.7169C27.876 78.6501 29.7588 81.0597 32.4831 81.468C33.4837 81.6207 33.8671 82.0322 34.1882 82.8925C35.4351 86.206 37.5017 88.921 40.6188 90.6074C47.3518 94.2513 54.4869 94.8467 61.8464 92.9078C62.6847 92.6634 63.5513 92.5293 64.4243 92.5088C69.1 92.5088 73.7507 92.5463 78.4108 92.4496C80.4868 92.406 81.5497 91.4864 81.8396 89.9216C82.1513 88.2353 81.3783 86.7546 79.5392 86.0034C78.6321 85.6325 78.6945 85.2148 78.9314 84.4823C80.0722 80.935 81.2256 77.3877 82.2604 73.8092C82.5877 72.6808 83.1083 72.3099 84.2679 72.1727C91.5619 71.3187 95.2401 65.1468 92.4316 58.3608ZM32.2119 79.9998C30.5225 79.5073 29.2195 77.6277 29.1541 75.5486C29.0886 73.4695 30.3323 71.4963 31.9875 70.9571C32.7761 70.6984 32.8478 70.7576 32.8229 71.4839C32.5177 74.0599 32.6229 76.6681 33.1346 79.2112C33.2842 80.084 32.9601 80.2336 32.2119 79.9998ZM67.8095 32.9905C67.8375 31.8777 67.8593 30.475 68.3363 29.1347C69.022 27.2239 70.0725 26.9527 71.575 28.2681C72.9184 29.462 73.7819 31.0018 74.5113 32.6102C76.5094 37.0272 77.2481 41.6967 77.3011 46.5126C77.3011 47.6192 76.9302 47.9028 75.8142 48.1117C74.0094 48.4483 73.3018 47.8935 72.8093 46.176C72.1859 43.994 70.9702 42.0208 69.7546 40.0882C67.9186 37.1706 67.8032 36.7747 67.8095 32.9905ZM66.3725 50.4464C61.5067 46.257 58.2648 41.1169 56.9619 34.8047C56.7624 33.945 56.756 33.0519 56.9432 32.1894C57.1115 31.4818 57.4762 30.9426 58.3147 30.98C59.3344 31.1866 60.2873 31.6416 61.089 32.3048C66.2478 36.41 69.6392 41.7652 71.9989 47.8436C72.2857 48.5793 72.0425 48.9658 71.3536 49.29C70.6648 49.6141 69.9665 49.9352 69.5644 50.4776C68.408 52.0361 67.5258 51.4283 66.3725 50.4371V50.4464ZM84.1744 70.7358C82.2043 70.8386 81.4406 71.5275 80.945 73.3635C79.879 77.3098 78.5667 81.1906 77.298 85.0776C76.9271 86.2123 76.8522 86.9791 78.3672 87.0726C78.8295 87.1477 79.2656 87.3374 79.6358 87.6243C79.9693 87.8315 80.2292 88.1384 80.3786 88.5015C80.528 88.8645 80.5593 89.2654 80.4681 89.6473C80.4097 90.0124 80.2234 90.3449 79.9424 90.5853C79.6615 90.8257 79.3042 90.9584 78.9345 90.9596C77.6876 91.0594 76.4408 91.0968 75.2126 91.1061C72.1672 91.1248 69.1218 91.1061 65.6057 91.1061C68.8038 88.5314 70.4653 85.6075 70.6835 81.9293C70.9266 77.7992 68.4578 73.7313 64.8669 72.3224C64.3744 72.1291 63.8383 71.8205 63.5203 72.4626C63.2024 73.1048 63.7416 73.3978 64.2373 73.591C69.4803 75.6359 71.2165 83.039 66.7528 88.1573C64.7952 90.4017 62.2516 91.6485 59.3777 92.1473C54.3493 93.0508 49.1713 92.6044 44.3718 90.8537C37.6794 88.4192 34.1601 82.7897 34.0573 74.7163C33.9388 65.4491 40.4848 57.8839 50.1946 56.104C55.5997 55.1159 60.8302 55.3496 65.587 58.5322C66.466 59.1214 66.9367 59.0154 67.1268 57.8278C67.9653 52.4912 71.7963 49.29 77.139 49.3741C83.5603 49.4895 90.0314 54.3335 91.6087 60.2124C93.0519 65.5832 89.7228 70.4427 84.1744 70.7358Z" fill="#D1AF8D" stroke="#D1AF8D" stroke-width="0.95"/>
</svg>
