<svg width="120" height="120" viewBox="0 0 120 120" fill="none" xmlns="http://www.w3.org/2000/svg">
<path d="M0.0337079 0.0337079C39.5618 0.0337079 79.091 0.0224719 118.621 0C119.774 0 120 0.225843 120 1.37865C119.962 40.4596 119.962 79.5405 120 118.621C120 119.774 119.774 120 118.621 120C79.5405 119.964 40.4596 119.964 1.37865 120C0.225843 120 0 119.774 0 118.621C0.0382022 79.091 0.0494382 39.5618 0.0337079 0.0337079Z" fill="#FEFEFE"/>
<path d="M55.4393 93.7078C49.1472 93.7078 42.855 93.7078 36.5629 93.7078C35.7907 93.715 35.0248 93.5682 34.3099 93.276C33.5951 92.9838 32.9456 92.5521 32.3996 92.006C31.8535 91.4599 31.4217 90.8105 31.1295 90.0956C30.8373 89.3808 30.6905 88.6149 30.6977 87.8427C30.6775 83.0157 30.718 78.1854 30.718 73.3483C30.718 70.7427 32.1168 68.6662 33.2562 66.4887C33.6997 65.7124 34.1003 64.9123 34.4562 64.0921C35.346 61.8033 35.3191 61.8033 33.0404 60.9606C32.2895 60.7073 31.6598 60.1833 31.2741 59.491C29.1944 55.7393 31.2741 52.0247 35.5112 52.0179C39.3843 52.0179 43.264 51.9876 47.1337 52.0382C48.1449 52.0382 48.6944 51.7786 48.7449 50.6898C48.8123 49.1966 49.4798 47.9224 50.2449 46.6449C51.4887 44.582 50.9562 42.4314 50.2652 40.3112C50.0696 39.7213 49.591 39.8426 49.1629 39.7853C45.3944 39.273 42.9303 36.3 43.1528 32.5449C43.3652 28.9887 46.2674 26.3325 50.0359 26.3258C62.3899 26.3258 74.7438 26.3258 87.0944 26.2988C88.6786 26.2988 89.3292 26.828 89.2854 28.4561C89.2011 31.4898 89.2652 34.5235 89.2584 37.5573C89.2584 39.5797 89.0461 39.8056 87.0539 39.8089C78.9101 39.8089 70.7696 39.8561 62.6292 39.7685C61.1022 39.7685 60.6067 40.328 60.2966 41.6764C59.8112 43.8202 59.9326 45.7617 61.2876 47.5887C61.9717 48.4997 62.328 49.615 62.2989 50.7539C62.2584 51.8528 62.7741 52.0516 63.7247 52.0449C67.7696 52.0112 71.8146 52.028 75.8595 52.0449C77.5045 52.0449 79.1697 52.3112 79.8202 53.9966C80.5382 55.8438 80.6191 57.8528 79.6315 59.6898C79.4054 60.1205 79.0663 60.4814 78.6506 60.7338C78.2349 60.9862 77.7582 61.1206 77.2719 61.1224C75.9067 61.1561 75.8123 61.8404 76.1359 62.9629C76.6122 64.5158 77.3104 65.9917 78.209 67.3449C79.622 69.5184 80.3284 72.0756 80.2315 74.6662C80.127 79.0988 80.2112 83.5382 80.2011 87.9741C80.2129 88.7299 80.0728 89.4804 79.789 90.1809C79.5052 90.8815 79.0836 91.518 78.5491 92.0524C78.0146 92.5869 77.3782 93.0086 76.6776 93.2924C75.977 93.5761 75.2266 93.7163 74.4708 93.7044C68.1292 93.7067 61.7854 93.7078 55.4393 93.7078Z" fill="#D2B190"/>
<path d="M55.3686 84.637C48.4619 84.637 41.5484 84.61 34.6518 84.6639C33.4214 84.6639 32.9664 84.3774 33.0169 83.0797C33.108 79.9954 33.0709 76.9044 33.0372 73.8167C33.0169 71.8853 33.7113 70.2066 34.7023 68.6156C35.9596 66.5931 37.0248 64.4965 37.372 62.1336C37.5001 61.2538 37.8304 61.0381 38.6529 61.0381C49.8889 61.0583 61.1181 61.0583 72.3405 61.0381C73.2102 61.0381 73.5911 61.3988 73.6889 62.1639C73.9956 64.746 75.2428 66.9268 76.5978 69.0673C77.4924 70.4365 77.954 72.0433 77.9226 73.6785C77.8686 76.7122 77.8316 79.746 77.9226 82.7797C77.9731 84.2257 77.6158 84.7078 76.0787 84.6875C69.1821 84.6066 62.2754 84.637 55.3686 84.637Z" fill="#FCFAF9"/>
<path d="M72.944 28.6282C77.0934 28.6282 81.2429 28.6788 85.3923 28.5979C86.6867 28.5743 87.0339 28.9956 86.9732 30.2293C86.8788 32.1877 86.9058 34.1563 86.9732 36.1147C87.0035 37.1259 86.7204 37.4934 85.6586 37.4866C78.6473 37.4462 71.6361 37.4462 64.6249 37.4866C63.6844 37.4866 63.3844 37.19 63.3575 36.2394C63.2664 33.1754 62.9732 32.7574 60.0541 31.8574C58.6013 31.4125 58.9754 30.3473 58.9855 29.4035C58.9889 28.3147 59.9024 28.6518 60.4923 28.6518C64.6417 28.6181 68.7912 28.6282 72.944 28.6282Z" fill="#FEFEFE"/>
<path d="M55.4426 58.9483H35.2415C33.2864 58.9483 33.0505 58.7056 33.0471 56.6865C33.0471 54.5325 33.2359 54.3269 35.2988 54.3269C48.764 54.3269 62.2303 54.3269 75.6977 54.3269C77.7202 54.3269 77.9123 54.5595 77.8988 56.7539C77.8988 58.7258 77.6494 58.9584 75.6437 58.9584L55.4426 58.9483Z" fill="#FCFAF9"/>
<path d="M55.4494 86.9662C62.4157 86.9662 69.382 86.9662 76.3483 86.9662C77.8719 86.9662 78.2798 87.4853 77.7337 88.8808C77.164 90.3403 76.1258 91.3381 74.4539 91.3415C61.8225 91.3415 49.191 91.3471 36.5595 91.3583C36.0237 91.3625 35.4956 91.2313 35.0241 90.9767C34.5527 90.7221 34.1532 90.3525 33.8629 89.9021C33.3371 89.174 32.7775 88.301 33.1483 87.4145C33.5359 86.4774 34.5438 86.9898 35.2517 86.9864C41.9764 86.9392 48.7146 86.9662 55.4494 86.9662Z" fill="#FEFEFE"/>
<path d="M54.6977 37.4664C53.073 37.4664 51.4482 37.4866 49.8235 37.4664C48.6906 37.4185 47.6197 36.9363 46.8328 36.1199C46.0459 35.3035 45.6035 34.2155 45.5975 33.0816C45.5914 31.9477 46.0221 30.855 46.8002 30.0302C47.5783 29.2054 48.644 28.7118 49.7763 28.6518C51.6269 28.608 53.4842 28.672 55.3246 28.6282C56.2011 28.608 56.7269 28.7866 56.6325 29.8181C56.4033 32.336 57.4685 33.863 60.0404 34.3147C61.4359 34.5574 61.0044 35.7439 61.0314 36.6338C61.0651 37.7495 60.1685 37.4428 59.5752 37.4563C57.9505 37.4933 56.3258 37.4563 54.6977 37.4563V37.4664Z" fill="#FEFEFE"/>
<path d="M55.4326 52.2101C54.4786 52.2101 53.5213 52.1595 52.5741 52.2101C51.1416 52.3044 50.764 51.573 51.0472 50.346C51.1597 49.7393 51.3886 49.1601 51.7213 48.6404C53.3697 46.382 53.6663 43.9044 52.9314 41.2988C52.5674 40.0044 52.9045 39.6134 54.209 39.7516C55.2722 39.8123 56.3379 39.8123 57.4011 39.7516C58.1461 39.7516 58.3955 39.9741 58.1697 40.7629C57.3404 43.6584 57.6135 46.3887 59.4438 48.8966C59.7809 49.3651 59.8786 50.0426 59.9798 50.6426C60.1483 51.6539 59.7977 52.2539 58.6315 52.1932C57.5663 52.1662 56.4977 52.2101 55.4326 52.2101Z" fill="#FCFAF9"/>
<path d="M55.5539 65.6864C58.9787 65.6864 62.4034 65.737 65.8247 65.6628C67.2438 65.6359 67.8472 66.0538 67.8135 67.5707C67.7326 71.1606 67.7495 74.7538 67.8135 78.3572C67.8371 79.7055 67.382 80.2583 65.9697 80.2482C59.0124 80.1977 52.0517 80.2078 45.0944 80.2482C43.7461 80.2482 43.136 79.7696 43.1494 78.3808C43.1899 74.7336 43.2034 71.0831 43.1494 67.4392C43.1292 66.0909 43.6955 65.6797 44.9629 65.6965C48.482 65.7302 52.018 65.6864 55.5539 65.6864Z" fill="#D1B08F"/>
<path d="M55.4461 77.8989C52.5877 77.8989 49.7158 77.8584 46.8742 77.9225C45.7551 77.9461 45.418 77.5584 45.4484 76.473C45.5113 74.0618 45.5113 71.6528 45.4484 69.2461C45.4248 68.1876 45.7012 67.7562 46.8506 67.7663C52.6214 67.8157 58.3922 67.8157 64.163 67.7663C65.3461 67.7663 65.7371 68.1775 65.7068 69.3371C65.6428 71.7438 65.6495 74.1539 65.7068 76.564C65.7304 77.5753 65.3697 77.9326 64.3585 77.9123C61.3855 77.8652 58.4124 77.8989 55.4461 77.8989Z" fill="#FCFAF9"/>
</svg>
