<svg width="21" height="16" viewBox="0 0 21 16" fill="none" xmlns="http://www.w3.org/2000/svg">
<path d="M21 0.883629C18.9172 2.12492 17.2638 3.48192 16.0399 4.95464C14.816 6.42735 14.1288 7.90007 13.9785 9.37278C15.2454 8.27876 16.3942 7.73176 17.4248 7.73176C18.0046 7.73176 18.4555 7.94214 18.7776 8.36292C19.0997 8.76266 19.2607 9.30966 19.2607 10.0039C19.2607 10.9086 18.9923 11.8343 18.4555 12.7811C17.9402 13.7068 17.2638 14.4747 16.4264 15.0848C15.589 15.6949 14.7301 16 13.8497 16C11.9172 16 10.9509 14.7377 10.9509 12.213C10.9509 10.7193 11.3374 9.21499 12.1104 7.7002C12.8834 6.1854 14 4.76529 15.4601 3.43984C16.9417 2.09336 18.6702 0.946746 20.6457 0L21 0.883629ZM10.0491 0.883629C7.96626 2.12492 6.31288 3.48192 5.08896 4.95464C3.86503 6.42735 3.17791 7.90007 3.02761 9.37278C4.29448 8.27876 5.44325 7.73176 6.47393 7.73176C7.05368 7.73176 7.5046 7.94214 7.82669 8.36292C8.14877 8.76266 8.30982 9.30966 8.30982 10.0039C8.30982 10.9086 8.04141 11.8343 7.5046 12.7811C6.98926 13.7068 6.31288 14.4747 5.47546 15.0848C4.63804 15.6949 3.77914 16 2.89877 16C0.966258 16 0 14.7377 0 12.213C0 10.7193 0.386503 9.21499 1.15951 7.7002C1.93252 6.1854 3.04908 4.76529 4.5092 3.43984C5.9908 2.09336 7.71933 0.946746 9.69479 0L10.0491 0.883629Z" fill="#5C5851"/>
</svg>
