<svg width="83" height="18" viewBox="0 0 83 18" fill="none" xmlns="http://www.w3.org/2000/svg">
<path fill-rule="evenodd" clip-rule="evenodd" d="M4.66596 11.006C4.99038 11.0049 5.31141 10.94 5.6107 10.8147C5.90998 10.6895 6.18164 10.5065 6.41013 10.2762C6.63862 10.0459 6.81946 9.77281 6.94231 9.47254C7.06515 9.17227 7.12759 8.85073 7.12604 8.52631C7.11795 8.21196 7.04779 7.90231 6.91961 7.61516C6.79142 7.32802 6.60773 7.06905 6.37911 6.85314C6.15048 6.63724 5.88143 6.46866 5.58742 6.3571C5.29342 6.24555 4.98026 6.19322 4.66596 6.20311H1.99467V11.006H4.66596ZM24.3467 13.7203L21.7458 7.93965C21.7458 7.93965 21.7458 7.92009 21.6949 7.92009C21.6441 7.92009 21.6519 7.93965 21.6519 7.93965L19.094 13.7203H24.3467ZM15.3511 17.342L21.2999 4.30231C21.3361 4.24541 21.3842 4.19705 21.441 4.16059C21.4977 4.12412 21.5616 4.10041 21.6284 4.09111H21.824C21.8904 4.09992 21.954 4.12345 22.0102 4.15999C22.0664 4.19653 22.1137 4.24515 22.1486 4.30231L28.0544 17.3263C28.0846 17.3804 28.0994 17.4418 28.0973 17.5037C28.0952 17.5656 28.0762 17.6258 28.0424 17.6777C28.0085 17.7296 27.9612 17.7713 27.9054 17.7983C27.8496 17.8253 27.7876 17.8366 27.7259 17.8308H26.5056C26.4101 17.8369 26.3151 17.812 26.2348 17.7598C26.1545 17.7077 26.0931 17.6311 26.0597 17.5414L25.0859 15.3668H18.3353C17.9442 16.2586 17.7408 16.6497 17.3536 17.5414C17.3147 17.6272 17.2521 17.7001 17.173 17.7514C17.094 17.8027 17.0019 17.8303 16.9077 17.8308H15.6875C15.6283 17.8337 15.5694 17.8212 15.5165 17.7946C15.4636 17.768 15.4184 17.7282 15.3854 17.679C15.3523 17.6299 15.3325 17.573 15.3279 17.514C15.3233 17.4549 15.334 17.3957 15.3589 17.342H15.3511ZM42.6311 10.8534C43.2581 10.8381 43.8544 10.5785 44.2928 10.1299C44.7311 9.68131 44.9769 9.07922 44.9778 8.452C44.9605 7.83531 44.7038 7.24957 44.2622 6.81884C43.8205 6.38811 43.2285 6.14624 42.6116 6.14445H39.1659V10.8378L42.6311 10.8534ZM37.1556 4.63867C37.1554 4.58835 37.1657 4.53855 37.1856 4.49234C37.2055 4.44613 37.2347 4.40451 37.2714 4.37004C37.3081 4.33558 37.3514 4.30901 37.3988 4.29198C37.4461 4.27494 37.4964 4.26781 37.5467 4.27103H42.811C43.3604 4.26535 43.9055 4.36801 44.4152 4.57314C44.9249 4.77826 45.3892 5.08184 45.7815 5.4665C46.1737 5.85116 46.4864 6.30938 46.7015 6.81494C46.9166 7.3205 47.0299 7.8635 47.035 8.41289C47.035 10.1924 45.8617 11.663 44.1643 12.324L46.8199 17.2442C46.8557 17.3011 46.8753 17.3667 46.8764 17.4339C46.8776 17.5011 46.8603 17.5673 46.8264 17.6254C46.7925 17.6835 46.7434 17.7311 46.6843 17.7632C46.6253 17.7953 46.5585 17.8106 46.4914 17.8074H44.9817C44.9187 17.808 44.8566 17.7921 44.8017 17.7612C44.7468 17.7303 44.701 17.6855 44.6688 17.6314L42.0679 12.5156H39.1424V17.4593C39.1368 17.555 39.0963 17.6453 39.0285 17.713C38.9607 17.7808 38.8704 17.8213 38.7748 17.8269H37.5193C37.4195 17.8271 37.3234 17.7891 37.2507 17.7208C37.178 17.6525 37.1342 17.5589 37.1282 17.4593L37.1556 4.63867ZM57.2978 4.63867C57.2972 4.59024 57.3064 4.5422 57.3247 4.49736C57.343 4.45252 57.37 4.41178 57.4043 4.37754C57.4385 4.3433 57.4793 4.31623 57.5241 4.29794C57.569 4.27965 57.617 4.2705 57.6654 4.27103H65.4094C65.458 4.27051 65.5063 4.27964 65.5513 4.29788C65.5964 4.31612 65.6374 4.34312 65.6719 4.37731C65.7065 4.4115 65.7339 4.45221 65.7526 4.49707C65.7713 4.54193 65.781 4.59006 65.781 4.63867V5.72205C65.7753 5.81837 65.7342 5.90919 65.6656 5.97705C65.597 6.04492 65.5058 6.08503 65.4094 6.08969H59.2807V10.5601H64.4551C64.5508 10.5657 64.6411 10.6062 64.7089 10.674C64.7766 10.7418 64.8172 10.8321 64.8228 10.9277V11.9916C64.8172 12.0872 64.7766 12.1775 64.7089 12.2453C64.6411 12.3131 64.5508 12.3536 64.4551 12.3592H59.2807V17.4436C59.2752 17.5387 59.2352 17.6285 59.1683 17.6962C59.1013 17.7639 59.012 17.8048 58.917 17.8113H57.6576C57.5601 17.8113 57.4666 17.7726 57.3976 17.7036C57.3287 17.6347 57.2899 17.5412 57.2899 17.4436L57.2978 4.63867ZM77.2444 2.73787L76.9746 2.19814C76.9433 2.1339 76.9376 2.06019 76.9587 1.99192C76.9798 1.92366 77.026 1.86596 77.088 1.83049L80.1113 0.0665812C80.2325 -0.011641 80.5024 -0.0507521 80.6197 0.121337L81.0617 0.97787C81.0885 1.01416 81.1072 1.05574 81.1166 1.09985C81.126 1.14395 81.1259 1.18956 81.1163 1.23362C81.1067 1.27768 81.0877 1.31918 81.0608 1.35534C81.0338 1.3915 80.9995 1.42148 80.96 1.44329L77.7059 2.83565C77.44 2.95298 77.307 2.90996 77.2288 2.73787H77.2444ZM74.843 4.63867C74.843 4.54116 74.8817 4.44765 74.9507 4.37871C75.0196 4.30976 75.1132 4.27103 75.2107 4.27103H82.9586C83.0068 4.27049 83.0547 4.27966 83.0993 4.298C83.1439 4.31633 83.1844 4.34346 83.2184 4.37776C83.2523 4.41206 83.279 4.45283 83.2968 4.49765C83.3147 4.54248 83.3234 4.59043 83.3223 4.63867V5.72205C83.3228 5.77014 83.3138 5.81786 83.2957 5.86244C83.2777 5.90703 83.251 5.94759 83.2172 5.98178C83.1833 6.01597 83.1431 6.04311 83.0987 6.06164C83.0543 6.08016 83.0067 6.08969 82.9586 6.08969H76.822V10.5601H81.9964C82.0921 10.5667 82.1819 10.6082 82.249 10.6767C82.316 10.7452 82.3556 10.8359 82.3602 10.9316V12.015C82.3607 12.0631 82.3517 12.1108 82.3336 12.1554C82.3156 12.2 82.2889 12.2406 82.255 12.2748C82.2212 12.3089 82.1809 12.3361 82.1365 12.3546C82.0922 12.3731 82.0445 12.3827 81.9964 12.3827H76.822V16.0356H82.9429C82.9912 16.0351 83.039 16.0443 83.0837 16.0626C83.1283 16.081 83.1688 16.1081 83.2027 16.1424C83.2366 16.1767 83.2633 16.2175 83.2812 16.2623C83.2991 16.3071 83.3077 16.3551 83.3067 16.4033V17.471C83.3072 17.5191 83.2981 17.5668 83.2801 17.6114C83.2621 17.656 83.2353 17.6966 83.2015 17.7308C83.1677 17.7649 83.1274 17.7921 83.083 17.8106C83.0386 17.8291 82.991 17.8387 82.9429 17.8387H75.195C75.0993 17.8331 75.009 17.7926 74.9413 17.7248C74.8735 17.657 74.833 17.5667 74.8274 17.471L74.843 4.63867ZM0 4.63867C0 4.54116 0.0387339 4.44765 0.107681 4.37871C0.176627 4.30976 0.270139 4.27103 0.367644 4.27103H4.78329C5.92846 4.27103 7.02672 4.72594 7.83648 5.5357C8.64624 6.34546 9.10116 7.44372 9.10116 8.58889C9.10116 9.73406 8.64624 10.8323 7.83648 11.6421C7.02672 12.4518 5.92846 12.9068 4.78329 12.9068H1.99467V17.4593C1.98908 17.555 1.94855 17.6453 1.88078 17.713C1.813 17.7808 1.7227 17.8213 1.62702 17.8269H0.367644C0.271962 17.8213 0.181662 17.7808 0.113889 17.713C0.0461154 17.6453 0.00558773 17.555 0 17.4593L0 4.63867Z" fill="#C6A566"/>
</svg>
