<svg width="157" height="88" viewBox="0 0 157 88" fill="none" xmlns="http://www.w3.org/2000/svg">
<path fill-rule="evenodd" clip-rule="evenodd" d="M67.7493 80.172C68.0353 79.8053 68.776 78.9547 69.2673 78.9547C69.502 78.9547 69.612 79.226 69.612 79.424C69.5804 79.7858 69.5065 80.1427 69.392 80.4873L67.9253 85.4813C67.9178 85.5373 67.9178 85.594 67.9253 85.65C67.9253 85.8113 68.27 85.9727 68.512 85.9727C68.754 85.9727 69.1207 85.9727 69.1573 85.826L69.48 84.6673C70.0813 82.8267 71.3647 79.314 72.6113 79.314C72.8313 79.314 73.066 79.3873 73.2787 79.3873C73.8433 79.3873 74.012 78.4633 74.012 78.0527C74.012 77.642 73.8287 77.4367 73.4547 77.4367C72.3107 77.4367 70.6093 80.6193 70.1253 81.5433L70.8073 79.0647C70.903 78.7595 70.9645 78.4447 70.9907 78.126C70.9907 77.6347 70.7047 77.4367 70.2573 77.4367C69.37 77.4367 67.9767 79.1893 67.5293 79.864L67.7493 80.172ZM74.804 83.384C74.804 81.5947 76.8573 78.2873 78.8153 78.2873C79.0525 78.3049 79.275 78.4085 79.4411 78.5787C79.6073 78.7488 79.7055 78.9738 79.7173 79.2113C79.7173 80.8173 77.5173 84.6307 75.7207 84.6307C75.0167 84.6307 74.782 84 74.782 83.384H74.804ZM80.458 78.0307C80.3259 77.852 80.1549 77.7057 79.958 77.6028C79.7611 77.4999 79.5434 77.4431 79.3213 77.4367C76.9893 77.4367 73.4547 81.5947 73.4547 84.4693C73.4357 84.6591 73.4576 84.8508 73.5189 85.0314C73.5802 85.212 73.6796 85.3774 73.8102 85.5164C73.9409 85.6554 74.0998 85.7648 74.2763 85.8371C74.4528 85.9095 74.6427 85.9432 74.8333 85.936C76.3 85.936 77.9573 83.8533 78.874 82.46V82.5187L78.368 84.11C78.2103 84.5353 78.1068 84.9788 78.06 85.43C78.0664 85.504 78.0875 85.5759 78.1221 85.6417C78.1567 85.7074 78.2041 85.7655 78.2615 85.8126C78.3189 85.8598 78.3851 85.895 78.4563 85.9162C78.5275 85.9373 78.6022 85.9441 78.676 85.936C79.8127 85.936 80.876 84.3227 81.6093 83.582L81.316 83.3473C80.9713 83.6553 80.502 84.418 79.9813 84.418C79.8127 84.418 79.7613 84.286 79.7613 84.1613C79.7582 84.009 79.7831 83.8574 79.8347 83.714L81.624 77.29C81.6433 77.2431 81.6556 77.1937 81.6607 77.1433C81.6607 77.092 81.6093 77.0553 81.4993 77.0553H81.118C80.9053 77.0553 80.7953 77.29 80.722 77.422L80.458 78.0307ZM82.944 83.4427C82.7052 83.7723 82.5585 84.1596 82.5187 84.5647C82.5187 85.7233 83.9853 85.9727 84.8213 85.9727C85.2178 85.9896 85.6135 85.924 85.9834 85.7801C86.3532 85.6362 86.6892 85.4171 86.97 85.1367C87.5757 84.6486 87.991 83.9635 88.1433 83.2007C88.1433 81.3233 84.946 80.9273 84.946 79.446C84.946 78.7127 85.6793 78.4193 86.3027 78.4193C86.5799 78.4099 86.8557 78.463 87.1096 78.5748C87.3635 78.6865 87.589 78.8539 87.7693 79.0647C87.8427 79.2113 87.8793 79.336 88.026 79.336H88.2387C88.4587 79.336 88.62 78.742 88.62 78.522C88.62 77.6347 87.7913 77.4367 87.0433 77.4367C86.5663 77.4123 86.0952 77.552 85.7087 77.8327C84.9753 78.2873 83.736 79.1013 83.736 80.0327C83.7235 80.3178 83.7788 80.6017 83.8973 80.8613C84.4253 82.042 87.0653 82.8193 87.0653 84.066C87.0653 84.7553 85.958 84.88 85.4593 84.88C84.5133 84.88 83.34 84.462 83.1567 83.4133L82.944 83.4427ZM89.9693 83.4427C89.7379 83.775 89.5965 84.1615 89.5587 84.5647C89.5587 85.7233 90.9887 85.9727 91.854 85.9727C92.2505 85.9896 92.6462 85.924 93.0161 85.7801C93.3859 85.6362 93.7219 85.4171 94.0027 85.1367C94.472 84.682 95.1833 83.9047 95.1833 83.2007C95.1833 81.3233 91.9787 80.9273 91.9787 79.446C91.9787 78.7127 92.712 78.4193 93.3353 78.4193C93.6126 78.4099 93.8884 78.463 94.1423 78.5748C94.3961 78.6865 94.6216 78.8539 94.802 79.0647C94.8753 79.2113 94.912 79.336 95.0587 79.336H95.3153C95.5353 79.336 95.6967 78.742 95.6967 78.522C95.6967 77.6347 94.868 77.4367 94.1273 77.4367C93.6479 77.4111 93.1742 77.5509 92.7853 77.8327C92.052 78.2873 90.8127 79.1013 90.8127 80.0327C90.8024 80.3183 90.8602 80.6024 90.9813 80.8613C91.502 82.042 94.142 82.8193 94.142 84.066C94.142 84.7553 93.042 84.88 92.536 84.88C91.59 84.88 90.4167 84.462 90.2333 83.4133L89.9693 83.4427ZM103.067 83.318C102.033 84.308 100.969 84.99 99.9207 84.99C99.7305 85.0079 99.5387 84.9849 99.358 84.9227C99.1774 84.8605 99.0122 84.7605 98.8733 84.6293C98.7345 84.4981 98.6253 84.3387 98.553 84.1619C98.4806 83.9851 98.4469 83.7949 98.454 83.604C98.4483 83.1354 98.4975 82.6678 98.6007 82.2107C100.537 82.0273 103.991 81.184 103.991 78.72C103.991 77.73 103.03 77.4367 102.216 77.4367C99.598 77.4367 97.0093 80.634 97.0093 83.5307C97.0093 84.7407 97.574 85.9727 99.2093 85.9727C100.845 85.9727 102.143 84.9387 103.309 83.6187L103.067 83.318ZM98.6667 81.7413C98.96 80.546 100.383 78.016 101.783 78.016C101.883 78.0158 101.983 78.0361 102.075 78.0757C102.166 78.1153 102.249 78.1733 102.318 78.2461C102.387 78.3189 102.44 78.405 102.474 78.4992C102.508 78.5933 102.523 78.6934 102.517 78.7933C102.524 80.766 100.339 81.6313 98.6667 81.7413ZM18 64.816C18.814 64.816 19.6427 64.816 20.4567 64.816C20.9847 64.816 21.5053 64.816 22.0333 64.816L22.1213 64.3467H21.388C20.794 64.3467 20.6547 64.0607 20.6547 63.6133C20.6705 63.4348 20.7024 63.2581 20.75 63.0853L22.7667 54.7327H22.8033L25.194 64.8233H25.8027L31.3027 54.102L30.628 63.0853C30.54 64.2073 30.144 64.354 29.0953 64.354H28.8753L28.7873 64.8233C29.6527 64.8233 30.5253 64.8233 31.3907 64.8233C32.256 64.8233 32.9673 64.8233 33.7373 64.8233L33.8327 64.354H33.5467C32.564 64.354 32.2413 64.024 32.2927 63.0487L32.872 53.8967C32.9307 53.068 33.2167 52.6647 34.2653 52.6647H34.4633L34.5513 52.2027C33.9573 52.2027 33.3267 52.2027 32.7107 52.2027C32.278 52.2027 31.8453 52.2027 31.4053 52.2027L26.1987 62.396L23.742 52.2027C23.2213 52.2027 22.6933 52.2027 22.1653 52.2027C21.6373 52.2027 21.0287 52.2027 20.464 52.2027L20.376 52.6647H20.618C21.41 52.6647 21.9527 52.7967 22.2607 53.6473L20.0533 62.6087C19.6573 64.1853 19.32 64.3467 18.3153 64.3467H18.1173L18 64.816ZM36.392 62.4987C36.392 60.7093 38.4527 57.3653 40.4033 57.3653C40.6525 57.3764 40.8881 57.4819 41.0624 57.6603C41.2367 57.8387 41.3367 58.0766 41.342 58.326C41.342 59.932 39.0907 63.7453 37.338 63.7453C36.6487 63.7453 36.4213 63.1147 36.4213 62.4987H36.392ZM42.046 57.1453C41.9139 56.9667 41.7429 56.8204 41.546 56.7175C41.3491 56.6146 41.1314 56.5578 40.9093 56.5513C38.5773 56.5513 35.0427 60.7093 35.0427 63.5913C35.0225 63.7807 35.0434 63.9723 35.1038 64.1529C35.1643 64.3335 35.2629 64.499 35.393 64.6382C35.5231 64.7773 35.6816 64.8868 35.8578 64.9593C36.034 65.0317 36.2237 65.0654 36.414 65.058C37.8807 65.058 39.5453 62.9753 40.4693 61.582V61.6407L39.9633 63.232C39.8056 63.6573 39.7021 64.1008 39.6553 64.552C39.6607 64.6264 39.6812 64.6988 39.7155 64.7651C39.7498 64.8313 39.7972 64.8898 39.8548 64.9371C39.9124 64.9845 39.979 65.0196 40.0506 65.0404C40.1223 65.0611 40.1973 65.0671 40.2713 65.058C41.4153 65.058 42.4713 63.452 43.2047 62.704L42.9113 62.4693C42.574 62.7773 42.1047 63.54 41.5693 63.54C41.4153 63.54 41.3567 63.408 41.3567 63.2833C41.3536 63.131 41.3784 62.9794 41.43 62.836L43.2487 56.4413C43.2661 56.3964 43.2784 56.3497 43.2853 56.302C43.2853 56.2433 43.234 56.2067 43.124 56.2067H42.7427C42.5227 56.2067 42.42 56.4413 42.3467 56.566L42.046 57.1453ZM45.9547 62.4473C45.9547 60.7607 47.568 57.314 49.6213 57.314C50.5967 57.314 50.9047 58.0473 50.9047 58.9273C50.9047 60.394 49.108 64.1413 47.238 64.1413C46.3067 64.112 45.984 63.276 45.984 62.4473H45.9547ZM53.024 62.374C52.716 62.7333 51.9973 63.6573 51.4913 63.6573C51.4521 63.6633 51.412 63.6601 51.3742 63.648C51.3364 63.6358 51.3019 63.6151 51.2735 63.5874C51.245 63.5596 51.2234 63.5257 51.2103 63.4882C51.1972 63.4507 51.193 63.4107 51.198 63.3713C51.2144 63.1767 51.2538 62.9847 51.3153 62.7993L54.1167 51.066L53.9333 51C53.4997 51.1421 53.0591 51.262 52.6133 51.3593C52.1773 51.4497 51.7367 51.5158 51.2933 51.5573L51.2053 51.814L52.2907 52.386L51.4107 56.9327C50.9949 56.6857 50.5228 56.5494 50.0393 56.5367C48.4627 56.5367 46.6147 58.238 45.7713 59.47C45.0346 60.4665 44.6062 61.6572 44.5393 62.8947C44.5393 64.0607 44.9867 65.0947 46.292 65.0947C47.9567 65.0947 49.152 63.738 50.142 62.5427L50.0173 62.9387C49.8366 63.4552 49.7208 63.9922 49.6727 64.5373C49.6717 64.6114 49.6856 64.685 49.7137 64.7535C49.7418 64.8221 49.7835 64.8842 49.8363 64.9363C49.889 64.9884 49.9517 65.0292 50.0206 65.0564C50.0896 65.0836 50.1633 65.0966 50.2373 65.0947C51.3887 65.0947 52.6353 63.496 53.2733 62.6307L53.024 62.374ZM60.636 62.4327C59.6093 63.43 58.5387 64.112 57.49 64.112C57.2992 64.13 57.1067 64.1069 56.9256 64.0442C56.7444 63.9816 56.5788 63.8809 56.4398 63.7489C56.3008 63.6168 56.1918 63.4566 56.1199 63.2789C56.0481 63.1012 56.0152 62.9102 56.0233 62.7187C56.0176 62.2501 56.0669 61.7824 56.17 61.3253C58.0987 61.142 61.56 60.2913 61.56 57.8347C61.56 56.8373 60.5993 56.5513 59.7853 56.5513C57.16 56.5513 54.5787 59.756 54.5787 62.6453C54.5787 63.8553 55.136 65.0873 56.7787 65.0873C58.4213 65.0873 59.712 64.0607 60.8853 62.7333L60.636 62.4327ZM56.236 60.856C56.522 59.6607 57.952 57.1307 59.3453 57.1307C59.4455 57.1305 59.5446 57.1508 59.6365 57.1904C59.7285 57.23 59.8114 57.2879 59.8801 57.3608C59.9488 57.4336 60.0018 57.5197 60.036 57.6138C60.0702 57.7079 60.0847 57.8081 60.0787 57.908C60.1153 59.866 57.9153 60.746 56.2727 60.856H56.236ZM68.138 59.1327C68.358 58.8467 69.04 57.9813 69.4213 57.9813C69.4501 57.9778 69.4793 57.9808 69.5068 57.9902C69.5342 57.9997 69.5591 58.0152 69.5796 58.0357C69.6001 58.0562 69.6157 58.0811 69.6251 58.1086C69.6345 58.136 69.6376 58.1652 69.634 58.194C69.6154 58.4259 69.561 58.6535 69.4727 58.8687L67.918 63.4593C67.8149 63.7431 67.7484 64.0388 67.72 64.3393C67.72 64.7573 67.8813 65.0727 68.4093 65.0727C69.4433 65.0727 70.7193 63.4447 71.284 62.682L70.9907 62.4547C70.8147 62.6527 69.876 63.628 69.6193 63.628C69.3627 63.628 69.3847 63.54 69.3847 63.3567C69.4148 63.1055 69.4764 62.8591 69.568 62.6233L71.0347 58.0327C71.159 57.7068 71.2427 57.3669 71.284 57.0207C71.284 56.7493 71.1593 56.566 70.7267 56.566C69.6927 56.566 68.3947 58.1207 67.8667 58.9127L68.138 59.1327ZM71.1153 52.3347C70.898 52.3511 70.6947 52.4483 70.5455 52.6071C70.3962 52.7659 70.3117 52.9748 70.3087 53.1927C70.3281 53.3999 70.4243 53.5925 70.5782 53.7326C70.7321 53.8728 70.9328 53.9505 71.141 53.9505C71.3492 53.9505 71.5499 53.8728 71.7038 53.7326C71.8577 53.5925 71.9539 53.3999 71.9733 53.1927C71.9696 52.9663 71.878 52.7502 71.7179 52.5901C71.5578 52.43 71.3417 52.3384 71.1153 52.3347ZM72.8387 59.1327L73.33 58.59C73.5891 58.2608 73.9643 58.0431 74.3787 57.9813C74.5913 57.9813 74.6647 58.1207 74.6647 58.304C74.6286 58.6142 74.5572 58.9193 74.452 59.2133L72.6773 64.5593C72.8356 64.7052 73.0415 64.7886 73.2567 64.794C73.4693 64.794 73.8653 64.7427 73.924 64.5887L74.2833 63.562C74.781 62.1999 75.5494 60.9526 76.542 59.8953C77.1433 59.2207 78.17 58.018 79.1893 58.018C79.3873 58.018 79.6 58.1207 79.6 58.3553C79.5578 58.6666 79.479 58.9718 79.3653 59.2647L77.9573 63.1073C77.8023 63.4645 77.7153 63.8475 77.7007 64.2367C77.7007 64.5667 77.9207 64.8307 78.39 64.8307C79.3873 64.8307 80.2747 64.0313 80.9053 63.254L81.558 62.462L81.25 62.22C80.9713 62.638 80.1793 63.496 79.688 63.496C79.4387 63.496 79.3653 63.3273 79.3653 63.1073C79.4091 62.7819 79.5031 62.4653 79.644 62.1687L81.1107 58.194C81.2215 57.9082 81.2835 57.6057 81.294 57.2993C81.3088 57.1996 81.3001 57.0978 81.2685 57.002C81.2369 56.9063 81.1833 56.8193 81.112 56.748C81.0407 56.6767 80.9537 56.6231 80.858 56.5915C80.7622 56.5599 80.6604 56.5511 80.5607 56.566C78.7933 56.566 76.1167 59.4993 75.244 60.7753L76.1827 58.0473C76.2937 57.7711 76.3605 57.479 76.3807 57.182C76.3886 57.0991 76.3781 57.0155 76.35 56.9372C76.3218 56.8588 76.2767 56.7877 76.2179 56.7288C76.159 56.6699 76.0878 56.6248 76.0095 56.5967C75.9311 56.5685 75.8475 56.558 75.7647 56.566C74.5693 56.566 73.308 58.0327 72.6187 58.8467L72.8387 59.1327ZM87.454 64.794H89.654C90.5193 64.794 91.1207 64.794 92.4187 64.794L92.514 64.3247H92.206C91.0253 64.3247 90.798 64.2147 90.798 63.6353C90.7899 63.4961 90.7899 63.3565 90.798 63.2173L91.5313 58.6267H94.252C94.846 58.6267 95.462 58.81 95.462 59.58C95.4447 59.8973 95.408 60.2132 95.352 60.526H95.7113L96.4447 56.126H96.0633L95.9753 56.4193C95.6087 57.6073 95.4473 57.8273 94.0173 57.886H91.6633L92.5873 52.7527H93.064C94.2667 52.7527 95.792 52.6573 96.2247 53.0387C96.6573 53.42 96.5913 54.1313 96.6427 54.6447H97.0167L97.2 52.1733C96.2247 52.1733 95.264 52.2393 94.2667 52.2393C92.624 52.2393 90.974 52.2393 89.3313 52.1733L89.2433 52.6353H89.4047C90.292 52.6353 90.798 52.716 90.798 53.508C90.7976 53.7543 90.7731 53.9999 90.7247 54.2413L89.0453 63.2833C88.7887 64.266 88.6273 64.3687 87.5787 64.354H87.366L87.454 64.794ZM97.904 59.2647C98.19 58.898 98.9307 58.0547 99.422 58.0547C99.6567 58.0547 99.7667 58.3187 99.7667 58.5167C99.7343 58.8784 99.6605 59.2352 99.5467 59.58L98.08 64.574C98.0735 64.63 98.0735 64.6866 98.08 64.7427C98.08 64.904 98.4247 65.0653 98.6593 65.0653C98.894 65.0653 99.2753 65.0653 99.312 64.926L99.6347 63.7673C100.229 61.912 101.519 58.4067 102.766 58.4067C102.979 58.4067 103.221 58.48 103.433 58.48C103.998 58.48 104.167 57.5633 104.167 57.1453C104.167 56.7273 103.983 56.5293 103.609 56.5293C102.465 56.5293 100.764 59.712 100.28 60.6287H100.243L100.933 58.1573C101.024 57.8514 101.083 57.5368 101.109 57.2187C101.109 56.7273 100.823 56.5293 100.375 56.5293C99.488 56.5293 98.0947 58.282 97.6473 58.9493L97.904 59.2647ZM104.951 62.4767C104.951 60.6873 107.012 57.3433 108.97 57.3433C109.207 57.3609 109.43 57.4645 109.596 57.6347C109.762 57.8048 109.86 58.0298 109.872 58.2673C109.872 59.8733 107.672 63.6867 105.875 63.6867C105.171 63.7453 104.951 63.1147 104.951 62.4987V62.4767ZM110.613 57.1233C110.481 56.9447 110.31 56.7984 110.113 56.6955C109.916 56.5926 109.698 56.5358 109.476 56.5293C107.144 56.5293 103.609 60.6873 103.609 63.5693C103.589 63.7587 103.61 63.9503 103.671 64.1309C103.731 64.3115 103.83 64.477 103.96 64.6162C104.09 64.7553 104.248 64.8648 104.424 64.9373C104.601 65.0097 104.79 65.0434 104.981 65.036C106.447 65.036 108.112 62.9533 109.029 61.56V61.6187L108.523 63.21C108.365 63.6353 108.261 64.0788 108.215 64.53C108.22 64.6044 108.241 64.6768 108.275 64.7431C108.309 64.8093 108.356 64.8678 108.414 64.9151C108.472 64.9625 108.538 64.9976 108.61 65.0184C108.682 65.0391 108.757 65.0451 108.831 65.036C109.967 65.036 111.031 63.43 111.72 62.682L111.434 62.4473C111.089 62.7553 110.62 63.518 110.092 63.518C109.931 63.518 109.879 63.386 109.879 63.2613C109.873 63.1088 109.898 62.9565 109.953 62.814L111.742 56.39C111.742 56.3167 111.779 56.28 111.779 56.2507C111.779 56.2213 111.72 56.1553 111.617 56.1553H111.236C111.023 56.1553 110.913 56.39 110.84 56.5147L110.613 57.1233ZM113.238 59.1327L113.729 58.59C113.985 58.2607 114.358 58.0427 114.771 57.9813C114.991 57.9813 115.064 58.1207 115.064 58.304C115.028 58.615 114.955 58.9204 114.844 59.2133L113.077 64.5593C113.235 64.7052 113.441 64.7886 113.656 64.794C113.869 64.794 114.265 64.7427 114.323 64.5887L114.683 63.562C115.18 62.1999 115.949 60.9526 116.941 59.8953C117.543 59.2207 118.569 58.018 119.581 58.018C119.779 58.018 119.999 58.1207 119.999 58.3553C119.957 58.6666 119.878 58.9718 119.765 59.2647L118.357 63.1073C118.202 63.4645 118.115 63.8475 118.1 64.2367C118.1 64.5667 118.32 64.8307 118.789 64.8307C119.779 64.8307 120.667 64.0313 121.305 63.254L121.95 62.462L121.642 62.22C121.371 62.638 120.579 63.496 120.087 63.496C119.838 63.496 119.765 63.3273 119.765 63.1073C119.809 62.7828 119.9 62.4666 120.036 62.1687L121.503 58.194C121.61 57.9072 121.672 57.6053 121.686 57.2993C121.701 57.1996 121.692 57.0978 121.661 57.002C121.629 56.9063 121.575 56.8193 121.504 56.748C121.433 56.6767 121.346 56.6231 121.25 56.5915C121.154 56.5599 121.052 56.5511 120.953 56.566C119.178 56.566 116.509 59.4993 115.636 60.7753H115.599L116.545 58.0473C116.656 57.7711 116.723 57.479 116.743 57.182C116.751 57.0991 116.741 57.0155 116.713 56.9372C116.685 56.8588 116.639 56.7877 116.581 56.7288C116.522 56.6699 116.451 56.6248 116.372 56.5967C116.294 56.5685 116.21 56.558 116.127 56.566C114.932 56.566 113.671 58.0327 112.981 58.8467L113.238 59.1327ZM129.782 62.1687C128.983 63.0193 127.773 64.112 126.548 64.112C126.321 64.135 126.092 64.1082 125.877 64.0334C125.662 63.9587 125.466 63.8377 125.302 63.6791C125.139 63.5205 125.012 63.3281 124.931 63.1153C124.85 62.9025 124.816 62.6745 124.832 62.4473C124.832 60.9807 126.145 57.6367 127.978 57.6367C128.535 57.6367 128.821 58.216 129.445 58.216C129.561 58.2095 129.675 58.1799 129.78 58.1291C129.884 58.0782 129.978 58.0071 130.055 57.9198C130.132 57.8325 130.191 57.7307 130.229 57.6204C130.266 57.5101 130.281 57.3935 130.273 57.2773C130.253 57.0638 130.149 56.867 129.984 56.7297C129.819 56.5924 129.607 56.5256 129.393 56.544C128.689 56.6444 128.004 56.8521 127.362 57.16C125.228 58.0253 123.365 60.1593 123.365 62.616C123.365 64.0313 124.099 65.08 125.565 65.08C127.428 65.08 128.836 63.8333 130.017 62.4913L129.782 62.1687ZM137.269 62.4327C136.243 63.43 135.172 64.112 134.123 64.112C133.933 64.13 133.74 64.1069 133.559 64.0442C133.378 63.9816 133.212 63.8809 133.073 63.7489C132.934 63.6168 132.825 63.4566 132.753 63.2789C132.681 63.1012 132.648 62.9102 132.657 62.7187C132.622 62.2559 132.642 61.7908 132.715 61.3327C134.659 61.1493 138.113 60.2987 138.113 57.842C138.113 56.8447 137.152 56.5587 136.338 56.5587C133.713 56.5587 131.124 59.7633 131.124 62.6527C131.124 63.8627 131.689 65.0947 133.324 65.0947C134.959 65.0947 136.257 64.068 137.423 62.7407L137.269 62.4327ZM132.869 60.856C133.155 59.6607 134.585 57.1307 135.979 57.1307C136.079 57.1305 136.178 57.1508 136.27 57.1904C136.362 57.23 136.445 57.2879 136.513 57.3608C136.582 57.4336 136.635 57.5197 136.669 57.6138C136.703 57.7079 136.718 57.8081 136.712 57.908C136.69 59.866 134.505 60.746 132.84 60.856H132.869ZM65.85 73.55L65.5567 73.4767C65.5053 73.4767 65.3807 73.616 65.1973 73.616C64.945 73.5878 64.6981 73.5236 64.464 73.4253C63.3848 73.0306 62.247 72.8199 61.098 72.802C57.05 72.802 53.508 75.8967 53.508 80.0033C53.508 83.67 56.0893 85.9727 59.58 85.9727C61.0681 85.9144 62.5325 85.5812 63.8993 84.99L64.3173 82.4453C64.5007 81.558 64.684 80.942 65.674 80.942H65.9087L65.9967 80.4873C65.366 80.4873 64.7353 80.546 64.1047 80.546C63.1073 80.546 62.0953 80.546 61.098 80.4873L61.01 80.964H61.384C62.0733 80.964 62.946 80.964 62.7993 81.8513L62.506 83.67C62.22 85.1367 61.0393 85.3933 59.69 85.3933C56.94 85.3933 55.3853 82.57 55.3853 79.952C55.3853 76.6373 58.1133 73.352 61.406 73.352C62.4805 73.2967 63.5338 73.6654 64.3393 74.3787C64.8353 74.9995 65.0742 75.7869 65.0067 76.5787H65.366L65.85 73.55Z" fill="#C6A566"/>
<path fill-rule="evenodd" clip-rule="evenodd" d="M8.74867 23.6362C9.35696 23.6342 9.9589 23.5124 10.5201 23.2776C11.0812 23.0428 11.5906 22.6997 12.019 22.2679C12.4474 21.8361 12.7865 21.324 13.0168 20.761C13.2472 20.198 13.3642 19.5951 13.3613 18.9868C13.3462 18.3974 13.2146 17.8168 12.9743 17.2784C12.7339 16.74 12.3895 16.2545 11.9608 15.8496C11.5322 15.4448 11.0277 15.1287 10.4764 14.9196C9.92516 14.7104 9.33798 14.6123 8.74867 14.6308H3.74V23.6362H8.74867ZM45.65 28.7255L40.7733 17.8868C40.7733 17.8868 40.7733 17.8502 40.678 17.8502C40.5827 17.8502 40.5973 17.8868 40.5973 17.8868L35.8013 28.7255H45.65ZM28.7833 35.5162L39.9373 11.0668C40.0052 10.9601 40.0954 10.8695 40.2018 10.8011C40.3081 10.7327 40.4281 10.6883 40.5533 10.6708H40.92C41.0445 10.6873 41.1638 10.7315 41.2691 10.8C41.3744 10.8685 41.4631 10.9597 41.5287 11.0668L52.602 35.4868C52.6586 35.5883 52.6864 35.7033 52.6824 35.8194C52.6784 35.9355 52.6428 36.0483 52.5794 36.1457C52.516 36.243 52.4272 36.3212 52.3227 36.3718C52.2181 36.4224 52.1017 36.4435 51.986 36.4328H49.698C49.5188 36.4441 49.3408 36.3974 49.1903 36.2997C49.0397 36.202 48.9246 36.0584 48.862 35.8902L47.036 31.8128H34.3787C33.6453 33.4848 33.264 34.2182 32.538 35.8902C32.4651 36.0511 32.3476 36.1877 32.1994 36.2839C32.0513 36.3801 31.8786 36.4318 31.702 36.4328H29.414C29.3031 36.4381 29.1926 36.4147 29.0934 36.3649C28.9942 36.315 28.9095 36.2404 28.8475 36.1482C28.7856 36.056 28.7485 35.9494 28.7398 35.8387C28.7311 35.728 28.7512 35.6169 28.798 35.5162H28.7833ZM79.9333 23.3502C81.109 23.3215 82.227 22.8347 83.0489 21.9936C83.8709 21.1525 84.3318 20.0235 84.3333 18.8475C84.3009 17.6912 83.8197 16.5929 82.9915 15.7853C82.1634 14.9777 81.0534 14.5242 79.8967 14.5208H73.436V23.3208L79.9333 23.3502ZM69.6667 11.6975C69.6665 11.6032 69.6856 11.5098 69.723 11.4231C69.7604 11.3365 69.8151 11.2585 69.8839 11.1938C69.9526 11.1292 70.0339 11.0794 70.1227 11.0475C70.2114 11.0155 70.3058 11.0021 70.4 11.0082H80.2707C81.3008 10.9975 82.3229 11.19 83.2785 11.5746C84.2342 11.9592 85.1047 12.5284 85.8402 13.2497C86.5758 13.9709 87.1619 14.8301 87.5653 15.778C87.9686 16.7259 88.1811 17.7441 88.1907 18.7742C88.1907 22.1108 85.9906 24.8682 82.808 26.1075L87.7873 35.3328C87.8545 35.4395 87.8912 35.5625 87.8933 35.6885C87.8955 35.8145 87.863 35.9387 87.7995 36.0476C87.736 36.1565 87.6439 36.2459 87.5331 36.306C87.4224 36.3662 87.2972 36.3948 87.1713 36.3888H84.3407C84.2225 36.39 84.1062 36.3601 84.0032 36.3022C83.9003 36.2443 83.8143 36.1604 83.754 36.0588L78.8773 26.4668H73.392V35.7362C73.3815 35.9156 73.3055 36.0849 73.1785 36.212C73.0514 36.339 72.8821 36.415 72.7027 36.4255H70.3487C70.1616 36.4258 69.9814 36.3546 69.8451 36.2265C69.7087 36.0983 69.6265 35.9229 69.6153 35.7362L69.6667 11.6975ZM107.433 11.6975C107.432 11.6067 107.45 11.5166 107.484 11.4326C107.518 11.3485 107.569 11.2721 107.633 11.2079C107.697 11.1437 107.774 11.0929 107.858 11.0586C107.942 11.0244 108.032 11.0072 108.123 11.0082H122.643C122.734 11.0072 122.824 11.0243 122.909 11.0585C122.993 11.0927 123.07 11.1434 123.135 11.2075C123.2 11.2716 123.251 11.3479 123.286 11.432C123.321 11.5161 123.339 11.6064 123.339 11.6975V13.7288C123.329 13.9094 123.252 14.0797 123.123 14.207C122.994 14.3342 122.823 14.4094 122.643 14.4182H111.151V22.8002H120.853C121.033 22.8106 121.202 22.8866 121.329 23.0137C121.456 23.1408 121.532 23.3101 121.543 23.4895V25.4842C121.532 25.6636 121.456 25.8329 121.329 25.96C121.202 26.087 121.033 26.163 120.853 26.1735H111.151V35.7068C111.141 35.8851 111.066 36.0534 110.941 36.1803C110.815 36.3072 110.647 36.384 110.469 36.3962H108.108C107.925 36.3962 107.75 36.3235 107.621 36.1943C107.491 36.065 107.419 35.8897 107.419 35.7068L107.433 11.6975ZM144.833 8.13351L144.327 7.12151C144.269 7.00106 144.258 6.86285 144.298 6.73486C144.337 6.60687 144.424 6.49867 144.54 6.43217L150.209 3.12484C150.436 2.97817 150.942 2.90484 151.162 3.22751L151.991 4.83351C152.041 4.90154 152.076 4.97952 152.094 5.06221C152.111 5.14491 152.111 5.23043 152.093 5.31304C152.075 5.39565 152.04 5.47346 151.989 5.54126C151.938 5.60905 151.874 5.66528 151.8 5.70617L145.699 8.31684C145.2 8.53684 144.951 8.45617 144.804 8.13351H144.833ZM140.331 11.6975C140.331 11.5147 140.403 11.3393 140.533 11.2101C140.662 11.0808 140.837 11.0082 141.02 11.0082H155.547C155.638 11.0072 155.728 11.0244 155.811 11.0587C155.895 11.0931 155.971 11.144 156.034 11.2083C156.098 11.2726 156.148 11.3491 156.182 11.4331C156.215 11.5171 156.231 11.6071 156.229 11.6975V13.7288C156.23 13.819 156.213 13.9085 156.18 13.9921C156.146 14.0757 156.096 14.1517 156.032 14.2158C155.969 14.2799 155.893 14.3308 155.81 14.3656C155.727 14.4003 155.637 14.4182 155.547 14.4182H144.041V22.8002H153.743C153.923 22.8125 154.091 22.8903 154.217 23.0188C154.343 23.1472 154.417 23.3173 154.425 23.4968V25.5282C154.426 25.6183 154.409 25.7078 154.376 25.7914C154.342 25.875 154.292 25.9511 154.228 26.0152C154.165 26.0793 154.089 26.1302 154.006 26.1649C153.923 26.1996 153.833 26.2175 153.743 26.2175H144.041V33.0668H155.518C155.608 33.0658 155.698 33.083 155.782 33.1174C155.866 33.1518 155.941 33.2026 156.005 33.267C156.069 33.3313 156.119 33.4077 156.152 33.4918C156.186 33.5758 156.202 33.6657 156.2 33.7562V35.7582C156.201 35.8483 156.184 35.9378 156.15 36.0214C156.116 36.105 156.066 36.1811 156.003 36.2452C155.939 36.3093 155.864 36.3602 155.781 36.3949C155.697 36.4296 155.608 36.4475 155.518 36.4475H140.991C140.811 36.437 140.642 36.361 140.515 36.234C140.388 36.1069 140.312 35.9376 140.301 35.7582L140.331 11.6975ZM0 11.6975C0 11.5147 0.072626 11.3393 0.201901 11.2101C0.331176 11.0808 0.506511 11.0082 0.689333 11.0082H8.96867C11.1159 11.0082 13.1751 11.8611 14.6934 13.3794C16.2117 14.8977 17.0647 16.957 17.0647 19.1042C17.0647 21.2514 16.2117 23.3106 14.6934 24.8289C13.1751 26.3472 11.1159 27.2002 8.96867 27.2002H3.74V35.7362C3.72952 35.9156 3.65353 36.0849 3.52646 36.212C3.39938 36.339 3.23007 36.415 3.05067 36.4255H0.689333C0.509928 36.415 0.340616 36.339 0.213541 36.212C0.0864664 36.0849 0.010477 35.9156 0 35.7362L0 11.6975Z" fill="#C6A566"/>
</svg>
