<svg width="1117" height="183" viewBox="0 0 1117 183" fill="none" xmlns="http://www.w3.org/2000/svg">
<path fill-rule="evenodd" clip-rule="evenodd" d="M685.287 168.636C689.161 171.009 693.512 172.494 698.027 172.987C697.438 173.338 696.933 173.815 696.548 174.383C696.164 174.951 695.909 175.597 695.803 176.275C695.768 176.533 696.173 176.652 696.258 176.391C696.456 175.689 696.791 175.032 697.244 174.46C697.696 173.887 698.257 173.41 698.895 173.055C700.907 173.219 702.93 173.17 704.932 172.907C704.052 173.681 703.172 174.414 702.342 175.258C702.029 175.559 702.422 176.096 702.747 175.802C703.724 174.929 704.654 173.996 705.6 173.08C705.637 173.046 705.665 173.003 705.681 172.956C705.697 172.908 705.701 172.857 705.692 172.807C707.659 172.496 709.58 171.943 711.411 171.161C707.794 174.739 703.399 177.811 698.102 177.284C692.805 176.757 688.488 172.893 685.287 168.636ZM697.052 166.178C700.14 165.698 703.296 165.913 706.29 166.808C708.715 167.628 710.951 168.748 713.453 168.854C712.387 169.456 711.278 169.978 710.135 170.416C707.655 169.402 705.256 168.2 702.959 166.82C702.666 166.651 702.322 166.991 702.63 167.251C704.688 168.749 706.962 169.927 709.374 170.744C707.607 171.37 705.775 171.792 703.913 172C701.652 171.42 699.546 170.351 697.742 168.871C697.464 168.645 697.134 169.034 697.412 169.301C698.883 170.588 700.618 171.537 702.495 172.08C702.005 172.108 701.475 172.136 701.016 172.124C699.432 172.11 697.852 171.955 696.295 171.66C694.72 170.777 693.296 169.649 692.076 168.318C691.844 168.07 691.427 168.368 691.638 168.653C692.452 169.708 693.46 170.598 694.608 171.274C690.902 170.238 687.381 168.632 684.17 166.513C688.357 167.534 692.736 166.609 697.059 166.165L697.052 166.178ZM698.267 178.441C704.948 178.918 710.218 174.203 714.411 169.529C716.218 168.381 717.83 166.953 719.188 165.298C719.343 165.102 719.054 164.796 718.863 164.971C717.706 166.025 716.468 166.987 715.161 167.847C715.05 167.764 714.914 167.72 714.776 167.723C711.367 168.139 708.491 166.177 705.31 165.352C702.99 164.802 700.591 164.666 698.225 164.952C693.294 165.404 688.114 166.978 683.259 165.587L682.852 164.92C682.637 164.543 682.085 164.722 681.938 165.061L681.553 164.823C681.474 164.763 681.374 164.737 681.276 164.751C681.178 164.765 681.089 164.817 681.029 164.896C680.969 164.975 680.943 165.075 680.957 165.173C680.971 165.271 681.023 165.36 681.102 165.42C681.603 165.897 682.142 166.363 682.692 166.795C685.99 172.341 691.758 177.949 698.335 178.423L698.267 178.441Z" fill="#FFAE95"/>
<path fill-rule="evenodd" clip-rule="evenodd" d="M685.287 168.636C689.161 171.009 693.512 172.494 698.027 172.987C697.438 173.338 696.933 173.815 696.548 174.383C696.164 174.951 695.909 175.597 695.803 176.275C695.768 176.533 696.173 176.652 696.258 176.391C696.456 175.689 696.791 175.032 697.244 174.46C697.696 173.887 698.257 173.41 698.895 173.055C700.907 173.219 702.93 173.17 704.932 172.907C704.052 173.681 703.172 174.414 702.342 175.258C702.029 175.559 702.422 176.096 702.747 175.802C703.724 174.929 704.654 173.996 705.6 173.08C705.637 173.046 705.665 173.003 705.681 172.956C705.697 172.908 705.701 172.857 705.692 172.807C707.659 172.496 709.58 171.943 711.411 171.161C707.794 174.739 703.399 177.811 698.102 177.284C692.805 176.757 688.488 172.893 685.287 168.636ZM697.052 166.178C700.14 165.698 703.296 165.913 706.29 166.808C708.715 167.628 710.951 168.748 713.453 168.854C712.387 169.456 711.278 169.978 710.135 170.416C707.655 169.402 705.256 168.2 702.959 166.82C702.666 166.651 702.322 166.991 702.63 167.251C704.688 168.749 706.962 169.927 709.374 170.744C707.607 171.37 705.775 171.792 703.913 172C701.652 171.42 699.546 170.351 697.742 168.871C697.464 168.645 697.134 169.034 697.412 169.301C698.883 170.588 700.618 171.537 702.495 172.08C702.005 172.108 701.475 172.136 701.016 172.124C699.432 172.11 697.852 171.955 696.295 171.66C694.72 170.777 693.296 169.649 692.076 168.318C691.844 168.07 691.427 168.368 691.638 168.653C692.452 169.708 693.46 170.598 694.608 171.274C690.902 170.238 687.381 168.632 684.17 166.513C688.357 167.534 692.736 166.609 697.059 166.165L697.052 166.178ZM698.267 178.441C704.948 178.918 710.218 174.203 714.411 169.529C716.218 168.381 717.83 166.953 719.188 165.298C719.343 165.102 719.054 164.796 718.863 164.971C717.706 166.025 716.468 166.987 715.161 167.847C715.05 167.764 714.914 167.72 714.776 167.723C711.367 168.139 708.491 166.177 705.31 165.352C702.99 164.802 700.591 164.666 698.225 164.952C693.294 165.404 688.114 166.978 683.259 165.587L682.852 164.92C682.637 164.543 682.085 164.722 681.938 165.061L681.553 164.823C681.474 164.763 681.374 164.737 681.276 164.751C681.178 164.765 681.089 164.817 681.029 164.896C680.969 164.975 680.943 165.075 680.957 165.173C680.971 165.271 681.023 165.36 681.102 165.42C681.603 165.897 682.142 166.363 682.692 166.795C685.99 172.341 691.758 177.949 698.335 178.423L698.267 178.441Z" fill="#BAE4D6"/>
<g clip-path="url(#clip0)">
<path fill-rule="evenodd" clip-rule="evenodd" d="M532.438 11.4184C527.898 11.5878 523.453 12.7595 519.42 14.8495C519.716 14.2308 519.873 13.5543 519.879 12.8682C519.884 12.1821 519.738 11.5031 519.452 10.8797C519.338 10.646 518.935 10.7707 519.008 11.0353C519.232 11.7298 519.317 12.4617 519.257 13.1889C519.197 13.9162 518.994 14.6244 518.66 15.273C516.893 16.2502 515.236 17.412 513.714 18.7389C514.018 17.6073 514.345 16.5096 514.569 15.3477C514.663 14.9237 514.039 14.694 513.931 15.1188C513.601 16.3867 513.342 17.6784 513.062 18.9644C513.05 19.0133 513.051 19.0645 513.064 19.1132C513.077 19.162 513.102 19.2066 513.137 19.2431C511.671 20.591 510.378 22.115 509.286 23.7804C510.317 18.798 512.276 13.8065 516.978 11.3126C521.681 8.81858 527.416 9.64603 532.438 11.4184ZM524.002 19.9797C521.697 22.0889 518.949 23.657 515.961 24.5696C513.487 25.2292 511.005 25.535 508.863 26.8325C509.418 25.741 510.052 24.692 510.761 23.6941C513.388 23.1658 516.051 22.8386 518.727 22.7154C519.066 22.6939 519.163 22.2201 518.764 22.1746C516.22 22.067 513.674 22.3451 511.213 22.9995C512.337 21.4999 513.63 20.1344 515.065 18.9297C517.269 18.1618 519.614 17.8852 521.936 18.1195C522.293 18.1536 522.353 17.6467 521.973 17.5787C520.036 17.3205 518.066 17.4912 516.202 18.0785C516.594 17.7844 517.02 17.4669 517.409 17.2227C518.736 16.3571 520.137 15.6116 521.597 14.9951C523.397 14.8584 525.208 15.0093 526.96 15.4422C527.291 15.5204 527.474 15.0413 527.14 14.9207C525.878 14.4928 524.546 14.3101 523.216 14.3825C526.875 13.1937 530.697 12.5814 534.544 12.5675C530.492 14.0355 527.357 17.2309 524.003 19.9938L524.002 19.9797ZM516.2 10.4407C510.373 13.7427 508.595 20.5861 507.692 26.8004C506.823 28.7567 506.27 30.8389 506.056 32.9688C506.036 33.218 506.446 33.3126 506.508 33.0607C506.888 31.5425 507.386 30.0565 507.998 28.616C508.136 28.6242 508.274 28.5855 508.388 28.5064C510.995 26.2725 514.477 26.3143 517.583 25.2392C519.819 24.4134 521.892 23.198 523.704 21.6494C527.56 18.543 531.002 14.3646 535.815 12.8343L536.523 13.165C536.911 13.3601 537.272 12.9051 537.206 12.5408L537.659 12.5263C537.758 12.5323 537.855 12.4986 537.929 12.4328C538.004 12.367 538.049 12.2744 538.055 12.1754C538.061 12.0763 538.027 11.979 537.961 11.9048C537.895 11.8305 537.803 11.7855 537.704 11.7795C537.023 11.6596 536.316 11.5698 535.618 11.5147C529.802 8.72277 521.893 7.2464 516.154 10.4932L516.2 10.4407Z" fill="#FFAE95"/>
<path fill-rule="evenodd" clip-rule="evenodd" d="M532.438 11.4184C527.898 11.5878 523.453 12.7595 519.42 14.8495C519.716 14.2308 519.873 13.5543 519.879 12.8682C519.884 12.1821 519.738 11.5031 519.452 10.8797C519.338 10.646 518.935 10.7707 519.008 11.0353C519.232 11.7298 519.317 12.4617 519.257 13.1889C519.197 13.9162 518.994 14.6244 518.66 15.273C516.893 16.2502 515.236 17.412 513.714 18.7389C514.018 17.6073 514.345 16.5096 514.569 15.3477C514.663 14.9237 514.039 14.694 513.931 15.1188C513.601 16.3867 513.342 17.6784 513.062 18.9644C513.05 19.0133 513.051 19.0645 513.064 19.1132C513.077 19.162 513.102 19.2066 513.137 19.2431C511.671 20.591 510.378 22.115 509.286 23.7804C510.317 18.798 512.276 13.8065 516.978 11.3126C521.681 8.81858 527.416 9.64603 532.438 11.4184ZM524.002 19.9797C521.697 22.0889 518.949 23.657 515.961 24.5696C513.487 25.2292 511.005 25.535 508.863 26.8325C509.418 25.741 510.052 24.692 510.761 23.6941C513.388 23.1658 516.051 22.8386 518.727 22.7154C519.066 22.6939 519.163 22.2201 518.764 22.1746C516.22 22.067 513.674 22.3451 511.213 22.9995C512.337 21.4999 513.63 20.1344 515.065 18.9297C517.269 18.1618 519.614 17.8852 521.936 18.1195C522.293 18.1536 522.353 17.6467 521.973 17.5787C520.036 17.3205 518.066 17.4912 516.202 18.0785C516.594 17.7844 517.02 17.4669 517.409 17.2227C518.736 16.3571 520.137 15.6116 521.597 14.9951C523.397 14.8584 525.208 15.0093 526.96 15.4422C527.291 15.5204 527.474 15.0413 527.14 14.9207C525.878 14.4928 524.546 14.3101 523.216 14.3825C526.875 13.1937 530.697 12.5814 534.544 12.5675C530.492 14.0355 527.357 17.2309 524.003 19.9938L524.002 19.9797ZM516.2 10.4407C510.373 13.7427 508.595 20.5861 507.692 26.8004C506.823 28.7567 506.27 30.8389 506.056 32.9688C506.036 33.218 506.446 33.3126 506.508 33.0607C506.888 31.5425 507.386 30.0565 507.998 28.616C508.136 28.6242 508.274 28.5855 508.388 28.5064C510.995 26.2725 514.477 26.3143 517.583 25.2392C519.819 24.4134 521.892 23.198 523.704 21.6494C527.56 18.543 531.002 14.3646 535.815 12.8343L536.523 13.165C536.911 13.3601 537.272 12.9051 537.206 12.5408L537.659 12.5263C537.758 12.5323 537.855 12.4986 537.929 12.4328C538.004 12.367 538.049 12.2744 538.055 12.1754C538.061 12.0763 538.027 11.979 537.961 11.9048C537.895 11.8305 537.803 11.7855 537.704 11.7795C537.023 11.6596 536.316 11.5698 535.618 11.5147C529.802 8.72277 521.893 7.2464 516.154 10.4932L516.2 10.4407Z" fill="url(#paint0_linear)"/>
<path fill-rule="evenodd" clip-rule="evenodd" d="M532.438 11.4184C527.898 11.5878 523.453 12.7595 519.42 14.8495C519.716 14.2308 519.873 13.5543 519.879 12.8682C519.884 12.1821 519.738 11.5031 519.452 10.8797C519.338 10.646 518.935 10.7707 519.008 11.0353C519.232 11.7298 519.317 12.4617 519.257 13.1889C519.197 13.9162 518.994 14.6244 518.66 15.273C516.893 16.2502 515.236 17.412 513.714 18.7389C514.018 17.6073 514.345 16.5096 514.569 15.3477C514.663 14.9237 514.039 14.694 513.931 15.1188C513.601 16.3867 513.342 17.6784 513.062 18.9644C513.05 19.0133 513.051 19.0645 513.064 19.1132C513.077 19.162 513.102 19.2066 513.137 19.2431C511.671 20.591 510.378 22.115 509.286 23.7804C510.317 18.798 512.276 13.8065 516.978 11.3126C521.681 8.81858 527.416 9.64603 532.438 11.4184ZM524.002 19.9797C521.697 22.0889 518.949 23.657 515.961 24.5696C513.487 25.2292 511.005 25.535 508.863 26.8325C509.418 25.741 510.052 24.692 510.761 23.6941C513.388 23.1658 516.051 22.8386 518.727 22.7154C519.066 22.6939 519.163 22.2201 518.764 22.1746C516.22 22.067 513.674 22.3451 511.213 22.9995C512.337 21.4999 513.63 20.1344 515.065 18.9297C517.269 18.1618 519.614 17.8852 521.936 18.1195C522.293 18.1536 522.353 17.6467 521.973 17.5787C520.036 17.3205 518.066 17.4912 516.202 18.0785C516.594 17.7844 517.02 17.4669 517.409 17.2227C518.736 16.3571 520.137 15.6116 521.597 14.9951C523.397 14.8584 525.208 15.0093 526.96 15.4422C527.291 15.5204 527.474 15.0413 527.14 14.9207C525.878 14.4928 524.546 14.3101 523.216 14.3825C526.875 13.1937 530.697 12.5814 534.544 12.5675C530.492 14.0355 527.357 17.2309 524.003 19.9938L524.002 19.9797ZM516.2 10.4407C510.373 13.7427 508.595 20.5861 507.692 26.8004C506.823 28.7567 506.27 30.8389 506.056 32.9688C506.036 33.218 506.446 33.3126 506.508 33.0607C506.888 31.5425 507.386 30.0565 507.998 28.616C508.136 28.6242 508.274 28.5855 508.388 28.5064C510.995 26.2725 514.477 26.3143 517.583 25.2392C519.819 24.4134 521.892 23.198 523.704 21.6494C527.56 18.543 531.002 14.3646 535.815 12.8343L536.523 13.165C536.911 13.3601 537.272 12.9051 537.206 12.5408L537.659 12.5263C537.758 12.5323 537.855 12.4986 537.929 12.4328C538.004 12.367 538.049 12.2744 538.055 12.1754C538.061 12.0763 538.027 11.979 537.961 11.9048C537.895 11.8305 537.803 11.7855 537.704 11.7795C537.023 11.6596 536.316 11.5698 535.618 11.5147C529.802 8.72277 521.893 7.2464 516.154 10.4932L516.2 10.4407Z" fill="#BAE4D6"/>
</g>
<g clip-path="url(#clip1)">
<path fill-rule="evenodd" clip-rule="evenodd" d="M448.275 108.209C449.366 110.573 450.966 112.667 452.962 114.34C452.569 114.319 452.177 114.385 451.812 114.534C451.448 114.682 451.121 114.909 450.854 115.198C450.756 115.31 450.911 115.496 451.035 115.399C451.353 115.127 451.721 114.921 452.119 114.792C452.517 114.663 452.937 114.614 453.353 114.648C454.26 115.367 455.24 115.988 456.278 116.5C455.612 116.589 454.959 116.658 454.295 116.796C454.05 116.84 454.066 117.221 454.315 117.184C455.059 117.079 455.799 116.931 456.541 116.795C456.57 116.791 456.597 116.779 456.619 116.762C456.642 116.744 456.66 116.721 456.672 116.695C457.708 117.173 458.8 117.521 459.922 117.731C457.059 118.285 453.986 118.349 451.629 116.411C449.272 114.474 448.445 111.257 448.275 108.209ZM454.665 110.783C456.29 111.538 457.725 112.646 458.867 114.026C459.762 115.189 460.471 116.434 461.63 117.282C460.93 117.229 460.235 117.125 459.551 116.97C458.692 115.696 457.932 114.36 457.276 112.971C457.19 112.797 456.918 112.849 456.982 113.071C457.486 114.441 458.195 115.726 459.084 116.884C458.042 116.62 457.035 116.237 456.081 115.743C455.188 114.747 454.525 113.567 454.137 112.287C454.076 112.091 453.795 112.171 453.842 112.387C454.133 113.469 454.658 114.473 455.38 115.33C455.138 115.187 454.876 115.032 454.661 114.88C453.91 114.369 453.207 113.792 452.559 113.156C452.089 112.233 451.77 111.242 451.612 110.219C451.58 110.027 451.287 110.036 451.297 110.239C451.348 111.001 451.546 111.746 451.877 112.434C450.441 110.76 449.274 108.874 448.419 106.841C450.089 108.661 452.471 109.615 454.672 110.78L454.665 110.783ZM451.339 117.015C454.372 119.37 458.384 118.801 461.871 117.908C463.098 117.937 464.321 117.77 465.496 117.413C465.632 117.369 465.592 117.131 465.445 117.154C464.558 117.288 463.661 117.352 462.764 117.346C462.738 117.271 462.687 117.207 462.62 117.164C460.863 116.277 460.118 114.426 458.864 113.02C457.933 112.019 456.833 111.19 455.614 110.573C453.12 109.218 450.151 108.319 448.279 106.11L448.298 105.662C448.316 105.414 447.995 105.324 447.817 105.439L447.71 105.202C447.691 105.149 447.652 105.105 447.601 105.08C447.549 105.055 447.49 105.052 447.437 105.07C447.383 105.089 447.339 105.128 447.314 105.18C447.289 105.231 447.286 105.29 447.305 105.343C447.391 105.73 447.5 106.124 447.625 106.505C447.43 110.198 448.394 114.708 451.377 117.028L451.339 117.015Z" fill="url(#paint1_linear)"/>
<path fill-rule="evenodd" clip-rule="evenodd" d="M448.275 108.209C449.366 110.573 450.966 112.667 452.962 114.34C452.569 114.319 452.177 114.385 451.812 114.534C451.448 114.682 451.121 114.909 450.854 115.198C450.756 115.31 450.911 115.496 451.035 115.399C451.353 115.127 451.721 114.921 452.119 114.792C452.517 114.663 452.937 114.614 453.353 114.648C454.26 115.367 455.24 115.988 456.278 116.5C455.612 116.589 454.959 116.658 454.295 116.796C454.05 116.84 454.066 117.221 454.315 117.184C455.059 117.079 455.799 116.931 456.541 116.795C456.57 116.791 456.597 116.779 456.619 116.762C456.642 116.744 456.66 116.721 456.672 116.695C457.708 117.173 458.8 117.521 459.922 117.731C457.059 118.285 453.986 118.349 451.629 116.411C449.272 114.474 448.445 111.257 448.275 108.209ZM454.665 110.783C456.29 111.538 457.725 112.646 458.867 114.026C459.762 115.189 460.471 116.434 461.63 117.282C460.93 117.229 460.235 117.125 459.551 116.97C458.692 115.696 457.932 114.36 457.276 112.971C457.19 112.797 456.918 112.849 456.982 113.071C457.486 114.441 458.195 115.726 459.084 116.884C458.042 116.62 457.035 116.237 456.081 115.743C455.188 114.747 454.525 113.567 454.137 112.287C454.076 112.091 453.795 112.171 453.842 112.387C454.133 113.469 454.658 114.473 455.38 115.33C455.138 115.187 454.876 115.032 454.661 114.88C453.91 114.369 453.207 113.792 452.559 113.156C452.089 112.233 451.77 111.242 451.612 110.219C451.58 110.027 451.287 110.036 451.297 110.239C451.348 111.001 451.546 111.746 451.877 112.434C450.441 110.76 449.274 108.874 448.419 106.841C450.089 108.661 452.471 109.615 454.672 110.78L454.665 110.783ZM451.339 117.015C454.372 119.37 458.384 118.801 461.871 117.908C463.098 117.937 464.321 117.77 465.496 117.413C465.632 117.369 465.592 117.131 465.445 117.154C464.558 117.288 463.661 117.352 462.764 117.346C462.738 117.271 462.687 117.207 462.62 117.164C460.863 116.277 460.118 114.426 458.864 113.02C457.933 112.019 456.833 111.19 455.614 110.573C453.12 109.218 450.151 108.319 448.279 106.11L448.298 105.662C448.316 105.414 447.995 105.324 447.817 105.439L447.71 105.202C447.691 105.149 447.652 105.105 447.601 105.08C447.549 105.055 447.49 105.052 447.437 105.07C447.383 105.089 447.339 105.128 447.314 105.18C447.289 105.231 447.286 105.29 447.305 105.343C447.391 105.73 447.5 106.124 447.625 106.505C447.43 110.198 448.394 114.708 451.377 117.028L451.339 117.015Z" fill="#BAE4D6"/>
</g>
<g clip-path="url(#clip2)">
<path fill-rule="evenodd" clip-rule="evenodd" d="M3.34074 45.7606C6.40085 49.0344 10.1474 51.5905 14.3118 53.2457C13.6589 53.4245 13.0535 53.7449 12.5385 54.1842C12.0235 54.6235 11.6117 55.1709 11.3322 55.7874C11.2317 56.0234 11.5852 56.2432 11.7349 56.0175C12.1078 55.4017 12.5987 54.8657 13.1794 54.4403C13.76 54.0148 14.419 53.7082 15.1185 53.5381C16.9885 54.2232 18.9259 54.7079 20.8982 54.9843C19.8584 55.4892 18.8287 55.9546 17.8179 56.5387C17.4414 56.7429 17.6734 57.3564 18.0596 57.1621C19.2184 56.5891 20.3481 55.9468 21.4875 55.3243C21.5318 55.3017 21.5696 55.2682 21.5975 55.227C21.6254 55.1859 21.6425 55.1383 21.6472 55.0888C23.5991 55.31 25.5709 55.289 27.5177 55.0263C23.1379 57.4781 18.1518 59.2444 13.2536 57.3513C8.35541 55.4583 5.2657 50.6493 3.34074 45.7606ZM15.1735 46.5143C18.2358 46.8695 21.1802 47.9037 23.792 49.5414C25.8823 50.9587 27.7142 52.6108 30.0661 53.3691C28.8941 53.6611 27.7021 53.8661 26.4999 53.9824C24.4086 52.3663 22.4436 50.593 20.6221 48.678C20.3872 48.4394 19.971 48.6729 20.1953 49.0003C21.7593 50.9659 23.6119 52.6834 25.69 54.0945C23.8459 54.2259 21.9928 54.1452 20.1672 53.8539C18.1704 52.7077 16.4486 51.1385 15.1224 49.2565C14.9175 48.9688 14.5009 49.2516 14.6957 49.5787C15.7553 51.1893 17.1558 52.5475 18.7982 53.5571C18.3254 53.4547 17.8133 53.3422 17.3803 53.2105C15.8774 52.781 14.4159 52.2182 13.0131 51.5288C11.7477 50.2754 10.69 48.8285 9.87986 47.2423C9.72434 46.9451 9.24943 47.119 9.37513 47.4455C9.87167 48.6624 10.5963 49.7732 11.5101 50.7179C8.25916 48.7592 5.3328 46.3066 2.83598 43.4481C6.54894 45.5194 10.9567 45.7907 15.1834 46.5045L15.1735 46.5143ZM13.1065 58.4946C19.3341 60.7039 25.5836 57.6058 30.799 54.2627C32.8189 53.6461 34.7277 52.7119 36.4539 51.4954C36.6524 51.3489 36.458 50.9824 36.2301 51.099C34.853 51.7969 33.4234 52.3861 31.9544 52.861C31.8709 52.7525 31.7534 52.6752 31.6207 52.6414C28.2703 52.1416 26.0514 49.5197 23.2425 47.8995C21.1816 46.7664 18.9364 46.0073 16.6107 45.6574C11.8031 44.791 6.46479 44.9268 2.21336 42.3284L2.00212 41.5868C1.89685 41.1717 1.32446 41.1968 1.09532 41.4811L0.792058 41.1532C0.732486 41.0755 0.644507 41.0247 0.547474 41.0119C0.450442 40.9991 0.352304 41.0254 0.27465 41.085C0.196997 41.1445 0.146188 41.2325 0.133402 41.3296C0.120616 41.4266 0.1469 41.5247 0.206471 41.6024C0.55705 42.1872 0.947089 42.7723 1.35709 43.328C3.03547 49.4677 7.04643 56.3162 13.1756 58.4951L13.1065 58.4946Z" fill="url(#paint2_linear)"/>
</g>
<g clip-path="url(#clip3)">
<path fill-rule="evenodd" clip-rule="evenodd" d="M247.338 42.7449C251.622 39.6842 256.523 37.6118 261.69 36.6758C260.978 36.3182 260.355 35.805 259.867 35.1737C259.378 34.5424 259.036 33.8089 258.865 33.0267C258.798 32.7233 259.261 32.5628 259.379 32.8509C259.663 33.6546 260.104 34.3927 260.676 35.0222C261.247 35.6516 261.938 36.1597 262.708 36.5168C265.017 36.1631 267.357 36.0624 269.687 36.2167C268.628 35.3844 267.568 34.564 266.518 33.6847C266.141 33.3625 266.547 32.706 266.95 33.0206C268.157 33.9644 269.305 34.9705 270.467 35.9669C270.511 36.0071 270.544 36.0578 270.564 36.1143C270.583 36.1708 270.588 36.2314 270.578 36.2904C272.877 36.492 275.14 36.9807 277.317 37.7453C272.87 33.856 267.565 30.652 261.507 31.6749C255.449 32.6978 250.712 37.5514 247.338 42.7449ZM261.134 44.6788C264.747 44.9787 268.384 44.4642 271.778 43.1727C274.517 42.0205 277 40.5434 279.905 40.2223C278.616 39.6186 277.29 39.0986 275.935 38.6653C273.129 40.0455 270.427 41.631 267.851 43.4089C267.524 43.618 267.117 43.1932 267.429 42.9329C269.71 41.0444 272.261 39.5123 274.995 38.3886C272.902 37.8035 270.75 37.457 268.579 37.3556C266.019 38.2191 263.673 39.6287 261.702 41.4881C261.398 41.7741 260.989 41.3611 261.292 41.0142C262.889 39.3605 264.831 38.084 266.976 37.2768C266.419 37.287 265.837 37.3048 265.274 37.3503C263.441 37.5006 261.627 37.8242 259.854 38.3166C258.106 39.4515 256.546 40.854 255.229 42.4735C254.981 42.7816 254.48 42.4739 254.711 42.1263C255.563 40.8316 256.655 39.7144 257.927 38.8361C253.72 40.3513 249.773 42.5173 246.227 45.2559C250.998 43.7367 256.105 44.4637 261.134 44.6788ZM261.66 30.3417C269.341 29.2799 275.792 34.3155 280.989 39.4193C283.132 40.611 285.075 42.1334 286.749 43.931C286.942 44.1354 286.644 44.5197 286.402 44.3188C284.983 43.1895 283.477 42.1742 281.9 41.2821C281.838 41.3427 281.765 41.3903 281.685 41.4219C281.604 41.4535 281.519 41.4686 281.433 41.4661C277.429 41.2514 274.293 43.7541 270.731 44.9905C268.089 45.7858 265.332 46.1169 262.581 45.969C256.852 45.8236 250.792 44.4167 245.25 46.406C245.082 46.7405 244.905 46.9884 244.773 47.2564C244.547 47.7141 243.902 47.5387 243.704 47.1632C243.578 47.2622 243.449 47.373 243.311 47.4699C243.226 47.5465 243.113 47.5857 242.999 47.5791C242.885 47.5724 242.778 47.5203 242.702 47.4343C242.626 47.3483 242.588 47.2355 242.595 47.1205C242.601 47.0056 242.653 46.898 242.739 46.8214C243.293 46.2155 243.878 45.6395 244.483 45.0912C247.869 38.4058 254.155 31.4229 261.66 30.3417Z" fill="#FFAE95"/>
<path fill-rule="evenodd" clip-rule="evenodd" d="M247.338 42.7449C251.622 39.6842 256.523 37.6118 261.69 36.6758C260.978 36.3182 260.355 35.805 259.867 35.1737C259.378 34.5424 259.036 33.8089 258.865 33.0267C258.798 32.7233 259.261 32.5628 259.379 32.8509C259.663 33.6546 260.104 34.3927 260.676 35.0222C261.247 35.6516 261.938 36.1597 262.708 36.5168C265.017 36.1631 267.357 36.0624 269.687 36.2167C268.628 35.3844 267.568 34.564 266.518 33.6847C266.141 33.3625 266.547 32.706 266.95 33.0206C268.157 33.9644 269.305 34.9705 270.467 35.9669C270.511 36.0071 270.544 36.0578 270.564 36.1143C270.583 36.1708 270.588 36.2314 270.578 36.2904C272.877 36.492 275.14 36.9807 277.317 37.7453C272.87 33.856 267.565 30.652 261.507 31.6749C255.449 32.6978 250.712 37.5514 247.338 42.7449ZM261.134 44.6788C264.747 44.9787 268.384 44.4642 271.778 43.1727C274.517 42.0205 277 40.5434 279.905 40.2223C278.616 39.6186 277.29 39.0986 275.935 38.6653C273.129 40.0455 270.427 41.631 267.851 43.4089C267.524 43.618 267.117 43.1932 267.429 42.9329C269.71 41.0444 272.261 39.5123 274.995 38.3886C272.902 37.8035 270.75 37.457 268.579 37.3556C266.019 38.2191 263.673 39.6287 261.702 41.4881C261.398 41.7741 260.989 41.3611 261.292 41.0142C262.889 39.3605 264.831 38.084 266.976 37.2768C266.419 37.287 265.837 37.3048 265.274 37.3503C263.441 37.5006 261.627 37.8242 259.854 38.3166C258.106 39.4515 256.546 40.854 255.229 42.4735C254.981 42.7816 254.48 42.4739 254.711 42.1263C255.563 40.8316 256.655 39.7144 257.927 38.8361C253.72 40.3513 249.773 42.5173 246.227 45.2559C250.998 43.7367 256.105 44.4637 261.134 44.6788ZM261.66 30.3417C269.341 29.2799 275.792 34.3155 280.989 39.4193C283.132 40.611 285.075 42.1334 286.749 43.931C286.942 44.1354 286.644 44.5197 286.402 44.3188C284.983 43.1895 283.477 42.1742 281.9 41.2821C281.838 41.3427 281.765 41.3903 281.685 41.4219C281.604 41.4535 281.519 41.4686 281.433 41.4661C277.429 41.2514 274.293 43.7541 270.731 44.9905C268.089 45.7858 265.332 46.1169 262.581 45.969C256.852 45.8236 250.792 44.4167 245.25 46.406C245.082 46.7405 244.905 46.9884 244.773 47.2564C244.547 47.7141 243.902 47.5387 243.704 47.1632C243.578 47.2622 243.449 47.373 243.311 47.4699C243.226 47.5465 243.113 47.5857 242.999 47.5791C242.885 47.5724 242.778 47.5203 242.702 47.4343C242.626 47.3483 242.588 47.2355 242.595 47.1205C242.601 47.0056 242.653 46.898 242.739 46.8214C243.293 46.2155 243.878 45.6395 244.483 45.0912C247.869 38.4058 254.155 31.4229 261.66 30.3417Z" fill="#BAE4D6"/>
</g>
<g clip-path="url(#clip4)">
<path fill-rule="evenodd" clip-rule="evenodd" d="M688.353 52.2542C691.521 49.0277 695.36 46.5425 699.596 44.9763C698.939 44.7815 698.334 44.4421 697.825 43.9827C697.315 43.5234 696.915 42.9558 696.652 42.3214C696.55 42.0754 696.918 41.8704 697.061 42.0959C697.423 42.7313 697.908 43.288 698.487 43.7333C699.066 44.1786 699.728 44.5036 700.434 44.6893C702.337 44.0438 704.304 43.6073 706.301 43.3875C705.279 42.8442 704.257 42.3112 703.235 41.7269C702.867 41.5116 703.112 40.8966 703.5 41.1016C704.666 41.7166 705.79 42.3932 706.924 43.0594C706.968 43.0868 707.003 43.1246 707.028 43.1693C707.053 43.2141 707.067 43.2644 707.068 43.3157C709.045 43.1406 711.036 43.2129 712.996 43.531C708.642 40.9171 703.664 39.0105 698.686 40.7838C693.709 42.5572 690.428 47.3647 688.353 52.2542ZM700.332 51.8134C703.438 51.5236 706.441 50.5431 709.122 48.9433C711.268 47.5594 713.149 45.9399 715.561 45.2326C714.378 44.9167 713.177 44.6771 711.963 44.515C709.795 46.1014 707.745 47.8452 705.831 49.7326C705.585 49.9581 705.177 49.6608 705.401 49.3943C707.049 47.4579 708.979 45.7818 711.125 44.4228C709.264 44.2435 707.389 44.2744 705.534 44.515C703.496 45.6283 701.721 47.1704 700.332 49.0355C700.117 49.3225 699.708 49.0355 699.913 48.6973C701.016 47.0618 702.469 45.6928 704.165 44.6893C703.695 44.7815 703.204 44.884 702.734 45.0071C701.204 45.4092 699.715 45.9549 698.288 46.6369C696.979 47.8571 695.868 49.2751 694.997 50.8396C694.833 51.1369 694.363 50.9524 694.506 50.6244C695.032 49.4039 695.789 48.297 696.734 47.3647C693.399 49.2753 690.382 51.6963 687.791 54.5401C691.603 52.5412 696.039 52.3875 700.332 51.8134ZM698.615 39.6358C704.962 37.5856 711.187 40.8658 716.358 44.392C718.353 45.0757 720.23 46.0684 721.919 47.3339C722.113 47.4774 721.919 47.8465 721.684 47.7132C720.311 46.9735 718.882 46.3429 717.411 45.8271C717.368 45.8875 717.313 45.9386 717.25 45.9774C717.187 46.0161 717.116 46.0417 717.043 46.0526C713.619 46.4729 711.34 49.056 708.509 50.6346C706.391 51.7026 704.105 52.3962 701.753 52.6847C696.877 53.4228 691.532 53.146 687.137 55.6574C687.045 55.9649 686.932 56.2007 686.861 56.4467C686.738 56.867 686.166 56.8157 685.941 56.5287C685.849 56.6312 685.757 56.744 685.655 56.8465C685.594 56.9239 685.504 56.974 685.407 56.9855C685.309 56.997 685.211 56.9691 685.133 56.908C685.056 56.8468 685.006 56.7574 684.995 56.6593C684.983 56.5613 685.011 56.4627 685.072 56.3852C685.45 55.7907 685.859 55.2166 686.288 54.6631C688.148 48.5127 692.421 41.6756 698.615 39.6358Z" fill="#FFAE95"/>
<path fill-rule="evenodd" clip-rule="evenodd" d="M688.353 52.2542C691.521 49.0277 695.36 46.5425 699.596 44.9763C698.939 44.7815 698.334 44.4421 697.825 43.9827C697.315 43.5234 696.915 42.9558 696.652 42.3214C696.55 42.0754 696.918 41.8704 697.061 42.0959C697.423 42.7313 697.908 43.288 698.487 43.7333C699.066 44.1786 699.728 44.5036 700.434 44.6893C702.337 44.0438 704.304 43.6073 706.301 43.3875C705.279 42.8442 704.257 42.3112 703.235 41.7269C702.867 41.5116 703.112 40.8966 703.5 41.1016C704.666 41.7166 705.79 42.3932 706.924 43.0594C706.968 43.0868 707.003 43.1246 707.028 43.1693C707.053 43.2141 707.067 43.2644 707.068 43.3157C709.045 43.1406 711.036 43.2129 712.996 43.531C708.642 40.9171 703.664 39.0105 698.686 40.7838C693.709 42.5572 690.428 47.3647 688.353 52.2542ZM700.332 51.8134C703.438 51.5236 706.441 50.5431 709.122 48.9433C711.268 47.5594 713.149 45.9399 715.561 45.2326C714.378 44.9167 713.177 44.6771 711.963 44.515C709.795 46.1014 707.745 47.8452 705.831 49.7326C705.585 49.9581 705.177 49.6608 705.401 49.3943C707.049 47.4579 708.979 45.7818 711.125 44.4228C709.264 44.2435 707.389 44.2744 705.534 44.515C703.496 45.6283 701.721 47.1704 700.332 49.0355C700.117 49.3225 699.708 49.0355 699.913 48.6973C701.016 47.0618 702.469 45.6928 704.165 44.6893C703.695 44.7815 703.204 44.884 702.734 45.0071C701.204 45.4092 699.715 45.9549 698.288 46.6369C696.979 47.8571 695.868 49.2751 694.997 50.8396C694.833 51.1369 694.363 50.9524 694.506 50.6244C695.032 49.4039 695.789 48.297 696.734 47.3647C693.399 49.2753 690.382 51.6963 687.791 54.5401C691.603 52.5412 696.039 52.3875 700.332 51.8134ZM698.615 39.6358C704.962 37.5856 711.187 40.8658 716.358 44.392C718.353 45.0757 720.23 46.0684 721.919 47.3339C722.113 47.4774 721.919 47.8465 721.684 47.7132C720.311 46.9735 718.882 46.3429 717.411 45.8271C717.368 45.8875 717.313 45.9386 717.25 45.9774C717.187 46.0161 717.116 46.0417 717.043 46.0526C713.619 46.4729 711.34 49.056 708.509 50.6346C706.391 51.7026 704.105 52.3962 701.753 52.6847C696.877 53.4228 691.532 53.146 687.137 55.6574C687.045 55.9649 686.932 56.2007 686.861 56.4467C686.738 56.867 686.166 56.8157 685.941 56.5287C685.849 56.6312 685.757 56.744 685.655 56.8465C685.594 56.9239 685.504 56.974 685.407 56.9855C685.309 56.997 685.211 56.9691 685.133 56.908C685.056 56.8468 685.006 56.7574 684.995 56.6593C684.983 56.5613 685.011 56.4627 685.072 56.3852C685.45 55.7907 685.859 55.2166 686.288 54.6631C688.148 48.5127 692.421 41.6756 698.615 39.6358Z" fill="#BAE4D6"/>
<path fill-rule="evenodd" clip-rule="evenodd" d="M688.353 52.2542C691.521 49.0277 695.36 46.5425 699.596 44.9763C698.939 44.7815 698.334 44.4421 697.825 43.9827C697.315 43.5234 696.915 42.9558 696.652 42.3214C696.55 42.0754 696.918 41.8704 697.061 42.0959C697.423 42.7313 697.908 43.288 698.487 43.7333C699.066 44.1786 699.728 44.5036 700.434 44.6893C702.337 44.0438 704.304 43.6073 706.301 43.3875C705.279 42.8442 704.257 42.3112 703.235 41.7269C702.867 41.5116 703.112 40.8966 703.5 41.1016C704.666 41.7166 705.79 42.3932 706.924 43.0594C706.968 43.0868 707.003 43.1246 707.028 43.1693C707.053 43.2141 707.067 43.2644 707.068 43.3157C709.045 43.1406 711.036 43.2129 712.996 43.531C708.642 40.9171 703.664 39.0105 698.686 40.7838C693.709 42.5572 690.428 47.3647 688.353 52.2542ZM700.332 51.8134C703.438 51.5236 706.441 50.5431 709.122 48.9433C711.268 47.5594 713.149 45.9399 715.561 45.2326C714.378 44.9167 713.177 44.6771 711.963 44.515C709.795 46.1014 707.745 47.8452 705.831 49.7326C705.585 49.9581 705.177 49.6608 705.401 49.3943C707.049 47.4579 708.979 45.7818 711.125 44.4228C709.264 44.2435 707.389 44.2744 705.534 44.515C703.496 45.6283 701.721 47.1704 700.332 49.0355C700.117 49.3225 699.708 49.0355 699.913 48.6973C701.016 47.0618 702.469 45.6928 704.165 44.6893C703.695 44.7815 703.204 44.884 702.734 45.0071C701.204 45.4092 699.715 45.9549 698.288 46.6369C696.979 47.8571 695.868 49.2751 694.997 50.8396C694.833 51.1369 694.363 50.9524 694.506 50.6244C695.032 49.4039 695.789 48.297 696.734 47.3647C693.399 49.2753 690.382 51.6963 687.791 54.5401C691.603 52.5412 696.039 52.3875 700.332 51.8134ZM698.615 39.6358C704.962 37.5856 711.187 40.8658 716.358 44.392C718.353 45.0757 720.23 46.0684 721.919 47.3339C722.113 47.4774 721.919 47.8465 721.684 47.7132C720.311 46.9735 718.882 46.3429 717.411 45.8271C717.368 45.8875 717.313 45.9386 717.25 45.9774C717.187 46.0161 717.116 46.0417 717.043 46.0526C713.619 46.4729 711.34 49.056 708.509 50.6346C706.391 51.7026 704.105 52.3962 701.753 52.6847C696.877 53.4228 691.532 53.146 687.137 55.6574C687.045 55.9649 686.932 56.2007 686.861 56.4467C686.738 56.867 686.166 56.8157 685.941 56.5287C685.849 56.6312 685.757 56.744 685.655 56.8465C685.594 56.9239 685.504 56.974 685.407 56.9855C685.309 56.997 685.211 56.9691 685.133 56.908C685.056 56.8468 685.006 56.7574 684.995 56.6593C684.983 56.5613 685.011 56.4627 685.072 56.3852C685.45 55.7907 685.859 55.2166 686.288 54.6631C688.148 48.5127 692.421 41.6756 698.615 39.6358Z" fill="url(#paint3_linear)"/>
</g>
<g clip-path="url(#clip5)">
<path fill-rule="evenodd" clip-rule="evenodd" d="M843.936 119.182C847.068 119.35 850.193 118.823 853.089 117.641C852.846 118.048 852.697 118.505 852.653 118.979C852.61 119.452 852.672 119.931 852.837 120.378C852.9 120.552 853.184 120.485 853.151 120.302C853.037 119.807 853.022 119.295 853.108 118.796C853.194 118.297 853.379 117.821 853.651 117.395C854.925 116.834 856.133 116.136 857.254 115.314C856.989 116.071 856.718 116.822 856.472 117.6C856.386 117.882 856.8 118.082 856.901 117.795C857.206 116.935 857.461 116.062 857.726 115.19C857.736 115.155 857.736 115.119 857.728 115.085C857.72 115.05 857.703 115.018 857.679 114.991C858.769 114.155 859.75 113.185 860.6 112.105C859.609 115.482 857.968 118.789 854.597 120.213C851.225 121.636 847.292 120.712 843.936 119.182ZM850.25 113.797C851.97 112.491 853.961 111.586 856.08 111.149C857.825 110.852 859.545 110.8 861.108 110.033C860.653 110.748 860.153 111.434 859.611 112.085C857.759 112.289 855.895 112.356 854.031 112.287C853.8 112.286 853.732 112.63 853.972 112.661C855.722 112.88 857.494 112.834 859.227 112.525C858.362 113.488 857.392 114.35 856.333 115.096C854.771 115.481 853.141 115.523 851.556 115.219C851.312 115.172 851.238 115.511 851.501 115.588C852.833 115.908 854.217 115.929 855.553 115.648C855.27 115.821 854.972 115.998 854.674 116.156C853.705 116.666 852.69 117.084 851.642 117.404C850.401 117.392 849.168 117.187 847.988 116.794C847.765 116.719 847.612 117.033 847.839 117.134C848.681 117.512 849.587 117.725 850.507 117.759C847.909 118.343 845.232 118.517 842.574 118.275C845.458 117.513 847.792 115.514 850.25 113.797ZM855.1 120.834C859.3 118.91 860.931 114.316 861.909 110.089C862.605 108.805 863.095 107.418 863.361 105.98C863.392 105.815 863.12 105.717 863.063 105.896C862.711 106.917 862.279 107.909 861.771 108.862C861.721 108.851 861.669 108.851 861.618 108.86C861.568 108.87 861.52 108.89 861.478 108.919C859.535 110.307 857.158 110.053 854.973 110.571C853.391 111.016 851.9 111.732 850.564 112.686C847.732 114.592 845.137 117.237 841.716 118.01C841.524 117.896 841.356 117.828 841.204 117.735C840.944 117.578 840.676 117.872 840.696 118.124C840.601 118.115 840.501 118.1 840.401 118.095C840.334 118.084 840.265 118.101 840.209 118.14C840.154 118.18 840.117 118.241 840.106 118.308C840.096 118.376 840.112 118.445 840.153 118.5C840.193 118.556 840.253 118.593 840.321 118.604C840.793 118.732 841.272 118.834 841.751 118.916C845.591 121.192 850.983 122.691 855.1 120.834Z" fill="#FFAE95"/>
<path fill-rule="evenodd" clip-rule="evenodd" d="M843.936 119.182C847.068 119.35 850.193 118.823 853.089 117.641C852.846 118.048 852.697 118.505 852.653 118.979C852.61 119.452 852.672 119.931 852.837 120.378C852.9 120.552 853.184 120.485 853.151 120.302C853.037 119.807 853.022 119.295 853.108 118.796C853.194 118.297 853.379 117.821 853.651 117.395C854.925 116.834 856.133 116.136 857.254 115.314C856.989 116.071 856.718 116.822 856.472 117.6C856.386 117.882 856.8 118.082 856.901 117.795C857.206 116.935 857.461 116.062 857.726 115.19C857.736 115.155 857.736 115.119 857.728 115.085C857.72 115.05 857.703 115.018 857.679 114.991C858.769 114.155 859.75 113.185 860.6 112.105C859.609 115.482 857.968 118.789 854.597 120.213C851.225 121.636 847.292 120.712 843.936 119.182ZM850.25 113.797C851.97 112.491 853.961 111.586 856.08 111.149C857.825 110.852 859.545 110.8 861.108 110.033C860.653 110.748 860.153 111.434 859.611 112.085C857.759 112.289 855.895 112.356 854.031 112.287C853.8 112.286 853.732 112.63 853.972 112.661C855.722 112.88 857.494 112.834 859.227 112.525C858.362 113.488 857.392 114.35 856.333 115.096C854.771 115.481 853.141 115.523 851.556 115.219C851.312 115.172 851.238 115.511 851.501 115.588C852.833 115.908 854.217 115.929 855.553 115.648C855.27 115.821 854.972 115.998 854.674 116.156C853.705 116.666 852.69 117.084 851.642 117.404C850.401 117.392 849.168 117.187 847.988 116.794C847.765 116.719 847.612 117.033 847.839 117.134C848.681 117.512 849.587 117.725 850.507 117.759C847.909 118.343 845.232 118.517 842.574 118.275C845.458 117.513 847.792 115.514 850.25 113.797ZM855.1 120.834C859.3 118.91 860.931 114.316 861.909 110.089C862.605 108.805 863.095 107.418 863.361 105.98C863.392 105.815 863.12 105.717 863.063 105.896C862.711 106.917 862.279 107.909 861.771 108.862C861.721 108.851 861.669 108.851 861.618 108.86C861.568 108.87 861.52 108.89 861.478 108.919C859.535 110.307 857.158 110.053 854.973 110.571C853.391 111.016 851.9 111.732 850.564 112.686C847.732 114.592 845.137 117.237 841.716 118.01C841.524 117.896 841.356 117.828 841.204 117.735C840.944 117.578 840.676 117.872 840.696 118.124C840.601 118.115 840.501 118.1 840.401 118.095C840.334 118.084 840.265 118.101 840.209 118.14C840.154 118.18 840.117 118.241 840.106 118.308C840.096 118.376 840.112 118.445 840.153 118.5C840.193 118.556 840.253 118.593 840.321 118.604C840.793 118.732 841.272 118.834 841.751 118.916C845.591 121.192 850.983 122.691 855.1 120.834Z" fill="url(#paint4_linear)"/>
</g>
<g clip-path="url(#clip6)">
<path fill-rule="evenodd" clip-rule="evenodd" d="M863.389 56.3586C860.258 56.191 857.132 56.7172 854.236 57.8996C854.479 57.4923 854.628 57.0352 854.672 56.5616C854.716 56.088 854.653 55.61 854.488 55.1623C854.425 54.9885 854.141 55.0559 854.174 55.2384C854.288 55.7331 854.303 56.2451 854.217 56.7442C854.131 57.2433 853.946 57.7197 853.674 58.1453C852.4 58.7062 851.192 59.4041 850.071 60.2267C850.337 59.47 850.607 58.7185 850.853 57.9408C850.94 57.6583 850.525 57.4585 850.424 57.7453C850.119 58.6057 849.864 59.4785 849.599 60.3509C849.59 60.3851 849.589 60.4212 849.597 60.4558C849.606 60.4904 849.623 60.5225 849.646 60.549C848.556 61.3855 847.575 62.3551 846.725 63.4356C847.716 60.0587 849.357 56.7517 852.729 55.328C856.1 53.9043 860.033 54.8281 863.389 56.3586ZM857.075 61.7433C855.356 63.0498 853.364 63.9544 851.245 64.3912C849.5 64.6883 847.78 64.7402 846.218 65.508C846.672 64.7924 847.172 64.1069 847.714 63.4558C849.566 63.2519 851.431 63.1844 853.294 63.2538C853.525 63.2543 853.594 62.9107 853.354 62.8796C851.603 62.6603 849.831 62.7063 848.098 63.016C848.963 62.0526 849.933 61.1901 850.992 60.4448C852.555 60.0597 854.184 60.0177 855.769 60.3217C856.014 60.3681 856.087 60.0297 855.824 59.9523C854.492 59.6322 853.108 59.6118 851.772 59.8925C852.055 59.7195 852.353 59.5422 852.651 59.385C853.62 58.8743 854.635 58.4564 855.684 58.1368C856.925 58.1482 858.158 58.3538 859.338 58.7462C859.561 58.8217 859.714 58.5071 859.486 58.4063C858.644 58.0281 857.738 57.816 856.818 57.7816C859.416 57.1974 862.093 57.0232 864.751 57.2652C861.867 58.0278 859.534 60.0266 857.075 61.7433ZM852.225 54.707C848.026 56.6305 846.395 61.2244 845.416 65.4512C844.72 66.7355 844.231 68.1221 843.965 69.5609C843.933 69.7252 844.206 69.8231 844.263 69.6449C844.615 68.6234 845.047 67.6316 845.554 66.6787C845.604 66.6894 845.656 66.6899 845.707 66.6801C845.757 66.6703 845.805 66.6505 845.848 66.6217C847.791 65.2332 850.167 65.4877 852.353 64.9696C853.934 64.5244 855.426 63.8089 856.761 62.8546C859.593 60.949 862.188 58.3038 865.61 57.5306C865.801 57.6449 865.969 57.7129 866.121 57.8053C866.381 57.963 866.649 57.6687 866.629 57.4165C866.724 57.4259 866.824 57.4405 866.924 57.4451C866.992 57.4562 867.061 57.44 867.116 57.4001C867.171 57.3602 867.208 57.2999 867.219 57.2324C867.229 57.1649 867.213 57.0958 867.173 57.0402C867.132 56.9847 867.072 56.9472 867.004 56.9361C866.532 56.809 866.054 56.7067 865.575 56.6245C861.735 54.3481 856.342 52.85 852.225 54.707Z" fill="#FFAE95"/>
<path fill-rule="evenodd" clip-rule="evenodd" d="M863.389 56.3586C860.258 56.191 857.132 56.7172 854.236 57.8996C854.479 57.4923 854.628 57.0352 854.672 56.5616C854.716 56.088 854.653 55.61 854.488 55.1623C854.425 54.9885 854.141 55.0559 854.174 55.2384C854.288 55.7331 854.303 56.2451 854.217 56.7442C854.131 57.2433 853.946 57.7197 853.674 58.1453C852.4 58.7062 851.192 59.4041 850.071 60.2267C850.337 59.47 850.607 58.7185 850.853 57.9408C850.94 57.6583 850.525 57.4585 850.424 57.7453C850.119 58.6057 849.864 59.4785 849.599 60.3509C849.59 60.3851 849.589 60.4212 849.597 60.4558C849.606 60.4904 849.623 60.5225 849.646 60.549C848.556 61.3855 847.575 62.3551 846.725 63.4356C847.716 60.0587 849.357 56.7517 852.729 55.328C856.1 53.9043 860.033 54.8281 863.389 56.3586ZM857.075 61.7433C855.356 63.0498 853.364 63.9544 851.245 64.3912C849.5 64.6883 847.78 64.7402 846.218 65.508C846.672 64.7924 847.172 64.1069 847.714 63.4558C849.566 63.2519 851.431 63.1844 853.294 63.2538C853.525 63.2543 853.594 62.9107 853.354 62.8796C851.603 62.6603 849.831 62.7063 848.098 63.016C848.963 62.0526 849.933 61.1901 850.992 60.4448C852.555 60.0597 854.184 60.0177 855.769 60.3217C856.014 60.3681 856.087 60.0297 855.824 59.9523C854.492 59.6322 853.108 59.6118 851.772 59.8925C852.055 59.7195 852.353 59.5422 852.651 59.385C853.62 58.8743 854.635 58.4564 855.684 58.1368C856.925 58.1482 858.158 58.3538 859.338 58.7462C859.561 58.8217 859.714 58.5071 859.486 58.4063C858.644 58.0281 857.738 57.816 856.818 57.7816C859.416 57.1974 862.093 57.0232 864.751 57.2652C861.867 58.0278 859.534 60.0266 857.075 61.7433ZM852.225 54.707C848.026 56.6305 846.395 61.2244 845.416 65.4512C844.72 66.7355 844.231 68.1221 843.965 69.5609C843.933 69.7252 844.206 69.8231 844.263 69.6449C844.615 68.6234 845.047 67.6316 845.554 66.6787C845.604 66.6894 845.656 66.6899 845.707 66.6801C845.757 66.6703 845.805 66.6505 845.848 66.6217C847.791 65.2332 850.167 65.4877 852.353 64.9696C853.934 64.5244 855.426 63.8089 856.761 62.8546C859.593 60.949 862.188 58.3038 865.61 57.5306C865.801 57.6449 865.969 57.7129 866.121 57.8053C866.381 57.963 866.649 57.6687 866.629 57.4165C866.724 57.4259 866.824 57.4405 866.924 57.4451C866.992 57.4562 867.061 57.44 867.116 57.4001C867.171 57.3602 867.208 57.2999 867.219 57.2324C867.229 57.1649 867.213 57.0958 867.173 57.0402C867.132 56.9847 867.072 56.9472 867.004 56.9361C866.532 56.809 866.054 56.7067 865.575 56.6245C861.735 54.3481 856.342 52.85 852.225 54.707Z" fill="url(#paint5_linear)"/>
<path fill-rule="evenodd" clip-rule="evenodd" d="M863.389 56.3586C860.258 56.191 857.132 56.7172 854.236 57.8996C854.479 57.4923 854.628 57.0352 854.672 56.5616C854.716 56.088 854.653 55.61 854.488 55.1623C854.425 54.9885 854.141 55.0559 854.174 55.2384C854.288 55.7331 854.303 56.2451 854.217 56.7442C854.131 57.2433 853.946 57.7197 853.674 58.1453C852.4 58.7062 851.192 59.4041 850.071 60.2267C850.337 59.47 850.607 58.7185 850.853 57.9408C850.94 57.6583 850.525 57.4585 850.424 57.7453C850.119 58.6057 849.864 59.4785 849.599 60.3509C849.59 60.3851 849.589 60.4212 849.597 60.4558C849.606 60.4904 849.623 60.5225 849.646 60.549C848.556 61.3855 847.575 62.3551 846.725 63.4356C847.716 60.0587 849.357 56.7517 852.729 55.328C856.1 53.9043 860.033 54.8281 863.389 56.3586ZM857.075 61.7433C855.356 63.0498 853.364 63.9544 851.245 64.3912C849.5 64.6883 847.78 64.7402 846.218 65.508C846.672 64.7924 847.172 64.1069 847.714 63.4558C849.566 63.2519 851.431 63.1844 853.294 63.2538C853.525 63.2543 853.594 62.9107 853.354 62.8796C851.603 62.6603 849.831 62.7063 848.098 63.016C848.963 62.0526 849.933 61.1901 850.992 60.4448C852.555 60.0597 854.184 60.0177 855.769 60.3217C856.014 60.3681 856.087 60.0297 855.824 59.9523C854.492 59.6322 853.108 59.6118 851.772 59.8925C852.055 59.7195 852.353 59.5422 852.651 59.385C853.62 58.8743 854.635 58.4564 855.684 58.1368C856.925 58.1482 858.158 58.3538 859.338 58.7462C859.561 58.8217 859.714 58.5071 859.486 58.4063C858.644 58.0281 857.738 57.816 856.818 57.7816C859.416 57.1974 862.093 57.0232 864.751 57.2652C861.867 58.0278 859.534 60.0266 857.075 61.7433ZM852.225 54.707C848.026 56.6305 846.395 61.2244 845.416 65.4512C844.72 66.7355 844.231 68.1221 843.965 69.5609C843.933 69.7252 844.206 69.8231 844.263 69.6449C844.615 68.6234 845.047 67.6316 845.554 66.6787C845.604 66.6894 845.656 66.6899 845.707 66.6801C845.757 66.6703 845.805 66.6505 845.848 66.6217C847.791 65.2332 850.167 65.4877 852.353 64.9696C853.934 64.5244 855.426 63.8089 856.761 62.8546C859.593 60.949 862.188 58.3038 865.61 57.5306C865.801 57.6449 865.969 57.7129 866.121 57.8053C866.381 57.963 866.649 57.6687 866.629 57.4165C866.724 57.4259 866.824 57.4405 866.924 57.4451C866.992 57.4562 867.061 57.44 867.116 57.4001C867.171 57.3602 867.208 57.2999 867.219 57.2324C867.229 57.1649 867.213 57.0958 867.173 57.0402C867.132 56.9847 867.072 56.9472 867.004 56.9361C866.532 56.809 866.054 56.7067 865.575 56.6245C861.735 54.3481 856.342 52.85 852.225 54.707Z" fill="#BAE4D6"/>
</g>
<g clip-path="url(#clip7)">
<path fill-rule="evenodd" clip-rule="evenodd" d="M1111.13 34.824C1107.16 34.48 1103.16 35.0191 1099.42 36.4028C1099.75 35.8947 1099.96 35.3192 1100.03 34.7185C1100.11 34.1178 1100.05 33.5069 1099.86 32.9304C1099.79 32.7067 1099.42 32.7806 1099.46 33.0141C1099.58 33.6484 1099.58 34.3003 1099.45 34.9318C1099.32 35.5633 1099.06 36.1617 1098.7 36.6918C1097.05 37.3523 1095.49 38.1899 1094.03 39.1898C1094.4 38.2381 1094.77 37.2932 1095.12 36.314C1095.24 35.9582 1094.72 35.6866 1094.58 36.0473C1094.16 37.1294 1093.79 38.2292 1093.42 39.3281C1093.41 39.3713 1093.41 39.4172 1093.41 39.4616C1093.42 39.506 1093.44 39.5474 1093.47 39.5822C1092.05 40.601 1090.76 41.7937 1089.64 43.1331C1091.04 38.8778 1093.26 34.7386 1097.61 33.0678C1101.96 31.3971 1106.93 32.7365 1111.13 34.824ZM1102.88 41.4118C1100.63 43.0023 1098.06 44.0701 1095.35 44.5375C1093.11 44.8427 1090.92 44.837 1088.9 45.7486C1089.51 44.8571 1090.18 44.0058 1090.89 43.2C1093.26 43.0178 1095.63 43.0097 1098 43.1758C1098.3 43.1861 1098.4 42.7518 1098.09 42.7022C1095.87 42.3501 1093.62 42.3347 1091.4 42.6565C1092.54 41.4667 1093.81 40.4098 1095.19 39.5057C1097.19 39.081 1099.27 39.0956 1101.27 39.5484C1101.58 39.6176 1101.69 39.1902 1101.36 39.0807C1099.68 38.6179 1097.92 38.5342 1096.2 38.8356C1096.57 38.6273 1096.96 38.4141 1097.34 38.2265C1098.6 37.6172 1099.91 37.1278 1101.26 36.7649C1102.83 36.8312 1104.39 37.1443 1105.88 37.6927C1106.16 37.7982 1106.37 37.4042 1106.08 37.2664C1105.03 36.7502 1103.88 36.4425 1102.71 36.3603C1106.04 35.7254 1109.46 35.6154 1112.83 36.0343C1109.13 36.8842 1106.08 39.3301 1102.88 41.4118ZM1097 32.2566C1091.57 34.5288 1089.31 40.3058 1087.89 45.6429C1086.95 47.248 1086.27 48.9919 1085.87 50.8113C1085.82 51.0192 1086.16 51.1551 1086.24 50.9307C1086.73 49.6456 1087.32 48.4018 1088.01 47.2105C1088.07 47.2263 1088.14 47.2291 1088.2 47.2187C1088.27 47.2084 1088.33 47.1851 1088.39 47.1503C1090.92 45.4647 1093.93 45.8877 1096.73 45.3196C1098.76 44.8192 1100.69 43.971 1102.43 42.8126C1106.11 40.5061 1109.52 37.2488 1113.91 36.4078C1114.15 36.5612 1114.36 36.6548 1114.55 36.7787C1114.87 36.9901 1115.23 36.6268 1115.21 36.3051C1115.33 36.321 1115.46 36.3438 1115.59 36.3538C1115.67 36.3707 1115.76 36.353 1115.83 36.3046C1115.9 36.2562 1115.95 36.1809 1115.97 36.0955C1115.99 36.0101 1115.97 35.9215 1115.92 35.8491C1115.87 35.7767 1115.79 35.7265 1115.71 35.7096C1115.11 35.5281 1114.51 35.378 1113.9 35.2534C1109.11 32.1969 1102.31 30.0657 1097 32.2566Z" fill="url(#paint6_linear)"/>
</g>
<g clip-path="url(#clip8)">
<path fill-rule="evenodd" clip-rule="evenodd" d="M188.897 132.525C192.578 136.289 197.04 139.189 201.963 141.016C201.2 141.243 200.496 141.639 199.904 142.175C199.313 142.711 198.847 143.373 198.542 144.113C198.423 144.4 198.851 144.639 199.017 144.376C199.438 143.635 200.001 142.986 200.674 142.466C201.347 141.947 202.117 141.567 202.937 141.351C205.148 142.104 207.435 142.613 209.755 142.87C208.567 143.503 207.379 144.125 206.192 144.807C205.764 145.058 206.049 145.776 206.5 145.536C207.855 144.819 209.161 144.03 210.48 143.252C210.53 143.22 210.572 143.176 210.601 143.124C210.63 143.072 210.645 143.013 210.646 142.953C212.944 143.158 215.258 143.073 217.536 142.702C212.475 145.752 206.691 147.976 200.906 145.907C195.121 143.838 191.308 138.229 188.897 132.525ZM202.818 133.039C206.428 133.377 209.918 134.521 213.034 136.388C215.528 138.002 217.714 139.892 220.517 140.717C219.142 141.085 217.746 141.365 216.336 141.554C213.815 139.703 211.433 137.669 209.209 135.467C208.924 135.204 208.449 135.551 208.71 135.862C210.625 138.121 212.867 140.076 215.362 141.662C213.199 141.871 211.019 141.835 208.864 141.554C206.495 140.255 204.433 138.456 202.818 136.28C202.569 135.945 202.094 136.28 202.331 136.675C203.614 138.583 205.302 140.18 207.273 141.351C206.726 141.243 206.156 141.124 205.61 140.98C203.832 140.511 202.102 139.874 200.442 139.079C198.921 137.655 197.631 136.001 196.618 134.175C196.428 133.829 195.881 134.044 196.047 134.426C196.659 135.85 197.538 137.142 198.637 138.229C194.761 136 191.254 133.176 188.243 129.858C192.674 132.19 197.829 132.37 202.818 133.039ZM200.823 147.247C208.199 149.638 215.433 145.811 221.444 141.698C223.762 140.9 225.943 139.742 227.905 138.265C228.131 138.098 227.905 137.667 227.632 137.823C226.037 138.686 224.377 139.422 222.667 140.023C222.617 139.953 222.553 139.893 222.48 139.848C222.406 139.803 222.325 139.773 222.239 139.76C218.26 139.27 215.611 136.256 212.321 134.415C209.86 133.169 207.204 132.359 204.469 132.023C198.803 131.162 192.591 131.485 187.483 128.555C187.376 128.196 187.245 127.921 187.162 127.634C187.02 127.143 186.355 127.203 186.093 127.538C185.986 127.419 185.879 127.287 185.761 127.167C185.69 127.077 185.586 127.019 185.473 127.005C185.359 126.992 185.245 127.024 185.155 127.096C185.065 127.167 185.007 127.271 184.994 127.386C184.98 127.5 185.013 127.615 185.084 127.706C185.523 128.399 185.998 129.069 186.497 129.715C188.659 136.89 193.624 144.867 200.823 147.247Z" fill="#FFAE95"/>
<path fill-rule="evenodd" clip-rule="evenodd" d="M188.897 132.525C192.578 136.289 197.04 139.189 201.963 141.016C201.2 141.243 200.496 141.639 199.904 142.175C199.313 142.711 198.847 143.373 198.542 144.113C198.423 144.4 198.851 144.639 199.017 144.376C199.438 143.635 200.001 142.986 200.674 142.466C201.347 141.947 202.117 141.567 202.937 141.351C205.148 142.104 207.435 142.613 209.755 142.87C208.567 143.503 207.379 144.125 206.192 144.807C205.764 145.058 206.049 145.776 206.5 145.536C207.855 144.819 209.161 144.03 210.48 143.252C210.53 143.22 210.572 143.176 210.601 143.124C210.63 143.072 210.645 143.013 210.646 142.953C212.944 143.158 215.258 143.073 217.536 142.702C212.475 145.752 206.691 147.976 200.906 145.907C195.121 143.838 191.308 138.229 188.897 132.525ZM202.818 133.039C206.428 133.377 209.918 134.521 213.034 136.388C215.528 138.002 217.714 139.892 220.517 140.717C219.142 141.085 217.746 141.365 216.336 141.554C213.815 139.703 211.433 137.669 209.209 135.467C208.924 135.204 208.449 135.551 208.71 135.862C210.625 138.121 212.867 140.076 215.362 141.662C213.199 141.871 211.019 141.835 208.864 141.554C206.495 140.255 204.433 138.456 202.818 136.28C202.569 135.945 202.094 136.28 202.331 136.675C203.614 138.583 205.302 140.18 207.273 141.351C206.726 141.243 206.156 141.124 205.61 140.98C203.832 140.511 202.102 139.874 200.442 139.079C198.921 137.655 197.631 136.001 196.618 134.175C196.428 133.829 195.881 134.044 196.047 134.426C196.659 135.85 197.538 137.142 198.637 138.229C194.761 136 191.254 133.176 188.243 129.858C192.674 132.19 197.829 132.37 202.818 133.039ZM200.823 147.247C208.199 149.638 215.433 145.811 221.444 141.698C223.762 140.9 225.943 139.742 227.905 138.265C228.131 138.098 227.905 137.667 227.632 137.823C226.037 138.686 224.377 139.422 222.667 140.023C222.617 139.953 222.553 139.893 222.48 139.848C222.406 139.803 222.325 139.773 222.239 139.76C218.26 139.27 215.611 136.256 212.321 134.415C209.86 133.169 207.204 132.359 204.469 132.023C198.803 131.162 192.591 131.485 187.483 128.555C187.376 128.196 187.245 127.921 187.162 127.634C187.02 127.143 186.355 127.203 186.093 127.538C185.986 127.419 185.879 127.287 185.761 127.167C185.69 127.077 185.586 127.019 185.473 127.005C185.359 126.992 185.245 127.024 185.155 127.096C185.065 127.167 185.007 127.271 184.994 127.386C184.98 127.5 185.013 127.615 185.084 127.706C185.523 128.399 185.998 129.069 186.497 129.715C188.659 136.89 193.624 144.867 200.823 147.247Z" fill="#BAE4D6"/>
</g>
<g clip-path="url(#clip9)">
<path fill-rule="evenodd" clip-rule="evenodd" d="M973.209 140.262C977.74 142.942 982.802 144.585 988.03 145.072C987.352 145.49 986.776 146.055 986.343 146.726C985.91 147.397 985.633 148.157 985.53 148.951C985.49 149.259 985.965 149.379 986.057 149.082C986.271 148.257 986.647 147.484 987.162 146.807C987.677 146.131 988.322 145.565 989.058 145.143C991.389 145.297 993.729 145.195 996.037 144.841C995.054 145.761 994.068 146.67 993.098 147.637C992.75 147.99 993.211 148.609 993.585 148.261C994.707 147.217 995.764 146.115 996.836 145.023C996.876 144.979 996.905 144.925 996.919 144.867C996.934 144.81 996.934 144.749 996.919 144.691C999.191 144.292 1001.4 143.61 1003.51 142.661C999.411 146.919 994.402 150.568 988.278 150.07C982.155 149.573 977.017 145.145 973.209 140.262ZM986.787 137.147C990.361 136.537 994.028 136.736 997.521 137.731C1000.35 138.643 1002.95 139.901 1005.87 139.97C1004.64 140.683 1003.36 141.315 1002.05 141.863C999.136 140.73 996.308 139.383 993.589 137.834C993.245 137.653 992.876 138.112 993.209 138.344C995.645 140.029 998.318 141.336 1001.14 142.22C999.103 142.983 996.989 143.514 994.835 143.802C992.21 143.162 989.751 141.96 987.628 140.277C987.3 140.018 986.928 140.465 987.26 140.784C988.993 142.294 991.038 143.399 993.245 144.018C992.689 144.056 992.108 144.089 991.543 144.092C989.704 144.1 987.868 143.934 986.059 143.596C984.221 142.616 982.545 141.353 981.093 139.853C980.82 139.567 980.348 139.917 980.608 140.243C981.568 141.46 982.752 142.479 984.095 143.244C979.774 142.097 975.654 140.279 971.886 137.856C976.77 138.959 981.795 137.794 986.787 137.147ZM988.545 151.386C996.29 151.782 1002.28 146.209 1007.02 140.677C1009.05 139.305 1010.86 137.621 1012.37 135.686C1012.55 135.466 1012.22 135.108 1011.99 135.329C1010.68 136.577 1009.26 137.718 1007.77 138.743C1007.7 138.688 1007.62 138.646 1007.54 138.622C1007.46 138.597 1007.37 138.59 1007.29 138.599C1003.32 139.158 999.977 136.935 996.321 136.01C993.621 135.445 990.846 135.353 988.118 135.737C982.422 136.375 976.506 138.299 970.813 136.794C970.617 136.475 970.42 136.244 970.265 135.988C970 135.551 969.373 135.782 969.208 136.173C969.073 136.085 968.936 135.986 968.79 135.901C968.698 135.832 968.583 135.803 968.47 135.819C968.357 135.836 968.255 135.897 968.186 135.989C968.118 136.081 968.089 136.197 968.106 136.311C968.123 136.425 968.184 136.528 968.276 136.597C968.88 137.152 969.513 137.676 970.162 138.17C974.112 144.539 980.976 150.955 988.545 151.386Z" fill="#FFAE95"/>
<path fill-rule="evenodd" clip-rule="evenodd" d="M973.209 140.262C977.74 142.942 982.802 144.585 988.03 145.072C987.352 145.49 986.776 146.055 986.343 146.726C985.91 147.397 985.633 148.157 985.53 148.951C985.49 149.259 985.965 149.379 986.057 149.082C986.271 148.257 986.647 147.484 987.162 146.807C987.677 146.131 988.322 145.565 989.058 145.143C991.389 145.297 993.729 145.195 996.037 144.841C995.054 145.761 994.068 146.67 993.098 147.637C992.75 147.99 993.211 148.609 993.585 148.261C994.707 147.217 995.764 146.115 996.836 145.023C996.876 144.979 996.905 144.925 996.919 144.867C996.934 144.81 996.934 144.749 996.919 144.691C999.191 144.292 1001.4 143.61 1003.51 142.661C999.411 146.919 994.402 150.568 988.278 150.07C982.155 149.573 977.017 145.145 973.209 140.262ZM986.787 137.147C990.361 136.537 994.028 136.736 997.521 137.731C1000.35 138.643 1002.95 139.901 1005.87 139.97C1004.64 140.683 1003.36 141.315 1002.05 141.863C999.136 140.73 996.308 139.383 993.589 137.834C993.245 137.653 992.876 138.112 993.209 138.344C995.645 140.029 998.318 141.336 1001.14 142.22C999.103 142.983 996.989 143.514 994.835 143.802C992.21 143.162 989.751 141.96 987.628 140.277C987.3 140.018 986.928 140.465 987.26 140.784C988.993 142.294 991.038 143.399 993.245 144.018C992.689 144.056 992.108 144.089 991.543 144.092C989.704 144.1 987.868 143.934 986.059 143.596C984.221 142.616 982.545 141.353 981.093 139.853C980.82 139.567 980.348 139.917 980.608 140.243C981.568 141.46 982.752 142.479 984.095 143.244C979.774 142.097 975.654 140.279 971.886 137.856C976.77 138.959 981.795 137.794 986.787 137.147ZM988.545 151.386C996.29 151.782 1002.28 146.209 1007.02 140.677C1009.05 139.305 1010.86 137.621 1012.37 135.686C1012.55 135.466 1012.22 135.108 1011.99 135.329C1010.68 136.577 1009.26 137.718 1007.77 138.743C1007.7 138.688 1007.62 138.646 1007.54 138.622C1007.46 138.597 1007.37 138.59 1007.29 138.599C1003.32 139.158 999.977 136.935 996.321 136.01C993.621 135.445 990.846 135.353 988.118 135.737C982.422 136.375 976.506 138.299 970.813 136.794C970.617 136.475 970.42 136.244 970.265 135.988C970 135.551 969.373 135.782 969.208 136.173C969.073 136.085 968.936 135.986 968.79 135.901C968.698 135.832 968.583 135.803 968.47 135.819C968.357 135.836 968.255 135.897 968.186 135.989C968.118 136.081 968.089 136.197 968.106 136.311C968.123 136.425 968.184 136.528 968.276 136.597C968.88 137.152 969.513 137.676 970.162 138.17C974.112 144.539 980.976 150.955 988.545 151.386Z" fill="#BAE4D6"/>
</g>
<defs>
<linearGradient id="paint0_linear" x1="531.327" y1="6.05647" x2="506.881" y2="33.8052" gradientUnits="userSpaceOnUse">
<stop stop-color="#F7E8E5"/>
<stop offset="1" stop-color="#DBE5DD"/>
</linearGradient>
<linearGradient id="paint1_linear" x1="445.683" y1="109.979" x2="465.756" y2="116.792" gradientUnits="userSpaceOnUse">
<stop stop-color="#F7E8E5"/>
<stop offset="1" stop-color="#DBE5DD"/>
</linearGradient>
<linearGradient id="paint2_linear" x1="0.062267" y1="50.054" x2="36.544" y2="50.3397" gradientUnits="userSpaceOnUse">
<stop stop-color="#F7E8E5"/>
<stop offset="1" stop-color="#DBE5DD"/>
</linearGradient>
<linearGradient id="paint3_linear" x1="703.495" y1="56.988" x2="703.495" y2="39.0021" gradientUnits="userSpaceOnUse">
<stop stop-color="#F7E8E5"/>
<stop offset="1" stop-color="#DBE5DD"/>
</linearGradient>
<linearGradient id="paint4_linear" x1="849.43" y1="109.668" x2="857.886" y2="118.872" gradientUnits="userSpaceOnUse">
<stop stop-color="#F7E8E5"/>
<stop offset="1" stop-color="#DBE5DD"/>
</linearGradient>
<linearGradient id="paint5_linear" x1="857.896" y1="65.873" x2="849.439" y2="56.6683" gradientUnits="userSpaceOnUse">
<stop stop-color="#F7E8E5"/>
<stop offset="1" stop-color="#DBE5DD"/>
</linearGradient>
<linearGradient id="paint6_linear" x1="1103.75" y1="46.7004" x2="1093.37" y2="34.6359" gradientUnits="userSpaceOnUse">
<stop stop-color="#F7E8E5"/>
<stop offset="1" stop-color="#DBE5DD"/>
</linearGradient>
<clipPath id="clip0">
<rect width="18.35" height="36.97" fill="white" transform="translate(524.439) rotate(41.3794)"/>
</clipPath>
<clipPath id="clip1">
<rect width="10.5182" height="21.1912" fill="white" transform="translate(444 114.96) rotate(-71.252)"/>
</clipPath>
<clipPath id="clip2">
<rect width="18.1027" height="36.4718" fill="white" transform="translate(0 59.1023) rotate(-89.5512)"/>
</clipPath>
<clipPath id="clip3">
<rect width="43" height="21" fill="white" transform="matrix(0.984518 0.175284 0.175284 -0.984518 242.533 47.5012)"/>
</clipPath>
<clipPath id="clip4">
<rect width="37" height="18" fill="white" transform="translate(685 39)"/>
</clipPath>
<clipPath id="clip5">
<rect width="25.6139" height="12.5091" fill="white" transform="translate(840 118.329) rotate(-42.5733)"/>
</clipPath>
<clipPath id="clip6">
<rect width="25.6139" height="12.5091" fill="white" transform="translate(867.325 57.2119) rotate(137.427)"/>
</clipPath>
<clipPath id="clip7">
<rect width="32.6075" height="15.9246" fill="white" transform="translate(1116.11 36.074) rotate(139.305)"/>
</clipPath>
<clipPath id="clip8">
<rect width="43" height="21" fill="white" transform="translate(185 127)"/>
</clipPath>
<clipPath id="clip9">
<rect width="43" height="21" fill="white" transform="translate(968.012 135.937) rotate(-15.0358)"/>
</clipPath>
</defs>
</svg>
